<svg width="33" height="30" viewBox="0 0 33 30" fill="none" xmlns="http://www.w3.org/2000/svg">
<g clip-path="url(#clip0)">
<path d="M19.548 3.30754C18.786 2.28875 18.1136 1.35145 17.486 0.495665C17.3963 0.37341 17.2618 0.251154 17.1274 0.16965C16.5894 -0.156365 15.8722 0.00664289 15.5136 0.495665C14.9308 1.35145 14.2584 2.248 13.4515 3.30754C9.9102 8.03476 4.62061 15.1663 4.62061 19.2415C4.62061 22.2164 5.96542 24.906 8.11712 26.8621C10.2688 28.7775 13.2274 30 16.4998 30C19.7722 30 22.7307 28.7775 24.8824 26.8214C27.0341 24.8653 28.3789 22.1757 28.3789 19.2008C28.3789 15.1256 23.0894 8.03476 19.548 3.30754ZM23.2687 25.3543C21.5204 26.9436 19.1446 27.8809 16.4998 27.8809C13.855 27.8809 11.4791 26.9029 9.73089 25.3543C7.98264 23.765 6.95161 21.6051 6.95161 19.2008C6.95161 15.7776 12.0171 8.97205 15.3791 4.4486C15.7825 3.91882 16.1412 3.38905 16.4998 2.94078C16.8584 3.38905 17.217 3.91882 17.6205 4.4486C20.9825 9.01281 26.0479 15.7776 26.0479 19.2008C26.0479 21.6051 24.9721 23.765 23.2687 25.3543Z" fill="black"/>
<path d="M23.4482 18.4672C22.8206 18.4265 22.2827 18.8748 22.2379 19.4453C22.193 20.3418 21.8793 21.1976 21.3862 21.9311C20.8931 22.6647 20.1758 23.3167 19.3241 23.7242C18.7862 24.0095 18.5621 24.6615 18.8758 25.1505C19.2345 25.7211 19.9517 25.8841 20.4896 25.5988C21.7 24.9875 22.6861 24.091 23.3586 23.0722C24.0758 22.0534 24.4792 20.8308 24.5241 19.5675C24.5689 18.997 24.0758 18.508 23.4482 18.4672Z" fill="black"/>
</g>
<defs>
<clipPath id="clip0">
<rect width="33" height="30" fill="white"/>
</clipPath>
</defs>
</svg>
