<svg width="33" height="30" viewBox="0 0 33 30" fill="none" xmlns="http://www.w3.org/2000/svg">
<g clip-path="url(#clip0)">
<path fill-rule="evenodd" clip-rule="evenodd" d="M18.1104 1.35142C18.5578 1.96615 19.0324 2.61819 19.548 3.30754C23.0894 8.03476 28.3789 15.1256 28.3789 19.2008C28.3789 22.1757 27.0341 24.8653 24.8824 26.8214C22.7307 28.7775 19.7722 30 16.4998 30C13.2274 30 10.2688 28.7775 8.11712 26.8621C5.96542 24.906 4.62061 22.2164 4.62061 19.2415C4.62061 15.1663 9.9102 8.03476 13.4515 3.30754C14.2584 2.24799 14.9308 1.35145 15.5136 0.495663C15.8722 0.00664074 16.5894 -0.156367 17.1274 0.169648C17.2618 0.251152 17.3963 0.373408 17.486 0.495663C17.6889 0.772394 17.8965 1.05765 18.1104 1.35142ZM22.2379 19.4453C22.2827 18.8748 22.8206 18.4265 23.4482 18.4672C24.0758 18.508 24.5689 18.997 24.5241 19.5675C24.4792 20.8308 24.0758 22.0534 23.3586 23.0722C22.6861 24.091 21.7 24.9875 20.4896 25.5988C19.9517 25.8841 19.2345 25.7211 18.8758 25.1505C18.5621 24.6615 18.7862 24.0095 19.3241 23.7242C20.1758 23.3167 20.8931 22.6647 21.3862 21.9311C21.8793 21.1976 22.193 20.3418 22.2379 19.4453Z" fill="#33CCDD"/>
</g>
<defs>
<clipPath id="clip0">
<rect width="33" height="30" fill="white"/>
</clipPath>
</defs>
</svg>
