<svg width="1440" height="259" viewBox="0 0 1440 259" fill="none" xmlns="http://www.w3.org/2000/svg">
<path d="M1520.5 258.319C1506.85 259.138 1493.9 254.062 1481.64 249.039C1470.21 244.358 1458.47 240.114 1447.3 234.924C1422.19 223.244 1398.37 207.661 1375.66 192.353C1352.06 176.447 1329.86 158.716 1309.72 139.088C1299.73 129.345 1290.81 119.04 1282.78 107.82C1275.33 97.4037 1268.23 86.8152 1259.6 77.1875C1258.79 76.2797 1257.41 77.5856 1258.21 78.4876C1267.3 88.6235 1274.72 99.8422 1282.56 110.811C1290.19 121.478 1298.91 131.07 1308.33 140.386C1328.44 160.26 1351.04 177.851 1374.67 193.938C1398.8 210.368 1424.39 226.736 1451.36 238.813C1462.47 243.789 1474.11 248.145 1485.49 252.587C1496.63 256.937 1508.25 260.891 1520.5 260.155C1521.76 260.079 1521.77 258.243 1520.5 258.319" fill="#1A365B" fill-opacity="0.8"/>
<path d="M1269.19 90.0044C1257.44 85.906 1252.3 74.9092 1246.85 65.2638C1240.85 54.6313 1234.55 43.8152 1228.02 33.472C1227.51 33.8422 1227 34.2139 1226.48 34.5855C1235.08 43.6947 1243.28 53.1124 1251.89 62.2142C1260.35 71.1574 1266.06 79.4498 1269.43 91.0489C1269.77 92.1903 1271.66 91.7055 1271.33 90.5612C1268.54 80.9614 1264.32 72.6469 1257.33 65.089C1247.52 54.4917 1237.79 43.8005 1227.87 33.2855C1227.12 32.4908 1225.77 33.5161 1226.33 34.399C1229.92 40.0898 1232.57 46.1876 1236.31 51.8123C1240.64 58.339 1244.57 65.0699 1248.28 71.9183C1252.83 80.3018 1258.94 88.3827 1268.67 91.7746C1269.86 92.1888 1270.37 90.4143 1269.19 90.0044" fill="#1A365B" fill-opacity="0.8"/>
<path d="M1293.45 121.437C1288.81 109.665 1283.72 98.3042 1284.27 85.5049C1284.57 78.517 1285.67 71.5584 1286.95 64.6791C1288.1 58.4815 1287.59 52.1619 1288.93 45.9657C1288.3 45.9657 1287.67 45.9657 1287.04 45.9657C1288.9 51.4847 1288.98 57.2461 1289.33 62.9751C1289.76 69.9116 1291.19 76.8041 1292.03 83.7098C1293.58 96.5737 1294.12 109.255 1293.12 122.182C1293.03 123.365 1295 123.356 1295.09 122.182C1296.16 108.289 1295.32 94.7448 1293.66 80.929C1292.84 74.2084 1291.58 67.5231 1291.16 60.7687C1290.84 55.5714 1290.62 50.474 1288.93 45.478C1288.66 44.6642 1287.24 44.5408 1287.04 45.478C1285.85 50.9794 1285.77 56.541 1285.3 62.1216C1284.72 69.0567 1283.07 75.9227 1282.48 82.8813C1281.27 96.8719 1286.47 109.031 1291.55 121.925C1291.99 123.027 1293.89 122.551 1293.45 121.437" fill="#1A365B" fill-opacity="0.8"/>
<path d="M1282.52 111.421C1273.76 114.861 1264.53 109.154 1256.43 106.262C1245.49 102.356 1234.49 98.692 1224.25 93.3155C1223.99 93.8752 1223.74 94.4334 1223.49 94.9931C1234.29 96.3915 1244.76 98.1323 1254.79 102.264C1258.96 103.984 1263.2 105.261 1267.64 106.269C1272.88 107.465 1277.12 109.932 1282.02 111.81C1283.2 112.258 1283.7 110.48 1282.55 110.038C1278.25 108.392 1275.33 106.29 1270.83 105.102C1264.8 103.518 1259.19 102.084 1253.41 99.7028C1244.15 95.8877 1233.97 94.5112 1224.01 93.2229C1222.98 93.0892 1222.2 94.3496 1223.25 94.902C1233.64 100.354 1244.79 104.115 1255.9 108.032C1264.4 111.028 1273.82 116.81 1283.05 113.191C1284.2 112.738 1283.69 110.961 1282.52 111.421" fill="#1A365B" fill-opacity="0.8"/>
<path d="M1303.3 133.733C1291.88 135.289 1280.4 131.55 1269.4 129.12C1259.36 126.903 1249.83 127.23 1239.72 126.118C1239.95 126.639 1240.18 127.163 1240.41 127.685C1247.99 121.801 1262.35 124.452 1271.41 125.094C1279.57 125.673 1294.52 128.105 1300.51 133.939C1301.39 134.794 1302.78 133.493 1301.9 132.638C1295.14 126.062 1280.61 124.111 1271.41 123.258C1261.64 122.352 1247.24 120.007 1239.02 126.385C1238.29 126.961 1238.97 127.872 1239.72 127.954C1244.71 128.504 1249.7 128.249 1254.72 128.477C1261.38 128.78 1268.23 130.729 1274.68 132.188C1284.3 134.361 1293.87 136.859 1303.83 135.503C1305.08 135.333 1304.54 133.564 1303.3 133.733" fill="#1A365B" fill-opacity="0.8"/>
<path d="M1309.33 138.382C1305.99 124.484 1306.23 111.462 1311.92 98.1514C1316.98 86.3172 1316.81 75.1148 1319.24 62.8223C1318.61 62.8223 1317.98 62.8223 1317.34 62.8223C1321.22 72.522 1317.35 85.4696 1317.56 95.7011C1317.89 111.306 1312.24 124.954 1309.35 140.064C1309.13 141.222 1311.02 141.717 1311.24 140.552C1313.99 126.235 1319.56 113.068 1319.57 98.3453C1319.57 91.5145 1319.49 84.9085 1320.23 78.1071C1320.8 72.8158 1321.26 67.3982 1319.24 62.3346C1318.93 61.5678 1317.54 61.3563 1317.34 62.3346C1315.95 69.3828 1316.1 76.5617 1314.74 83.6187C1313.48 90.1704 1310.49 96.3225 1308.02 102.52C1303.4 114.125 1304.59 127.051 1307.43 138.87C1307.71 140.026 1309.6 139.537 1309.33 138.382" fill="#1A365B" fill-opacity="0.8"/>
<path d="M1314.64 144.728C1291.81 137.448 1273.22 152.715 1252.72 159.454C1251.71 159.785 1251.82 161.287 1252.98 161.257C1263.53 160.979 1274.36 159.445 1284.64 157.235C1295.25 154.957 1305.48 149.113 1316.46 148.801C1317.72 148.765 1317.72 146.929 1316.46 146.964C1306.84 147.239 1298.32 151.878 1289.21 154.247C1277.64 157.26 1265 159.105 1252.98 159.421C1253.07 160.022 1253.16 160.622 1253.24 161.223C1273.29 154.632 1291.78 139.376 1314.12 146.499C1315.32 146.882 1315.84 145.108 1314.64 144.728" fill="#1A365B" fill-opacity="0.8"/>
<path d="M1336.72 161.948C1316.78 138.033 1337.77 109.622 1341.5 84.6632C1340.86 84.5809 1340.22 84.5016 1339.57 84.4193C1340.19 98.3776 1340.5 111.396 1337.51 125.178C1336.38 130.394 1335.5 135.499 1335.47 140.83C1335.42 148.514 1337.12 155.869 1335.8 163.562C1335.6 164.72 1337.49 165.217 1337.69 164.05C1338.58 158.856 1338.38 153.801 1337.94 148.565C1337.28 140.664 1337.76 133.473 1339.41 125.665C1342.35 111.736 1342.16 98.57 1341.54 84.4193C1341.5 83.4336 1339.77 83.1075 1339.61 84.1755C1337.36 99.1926 1329.21 112.677 1327.07 127.722C1325.38 139.668 1327.24 153.544 1335.33 163.248C1336.11 164.181 1337.49 162.87 1336.72 161.948" fill="#1A365B" fill-opacity="0.8"/>
<path d="M1339.57 167.224C1329.77 162.105 1318.64 161.246 1308.09 164.876C1302.33 166.857 1296.81 169.34 1291.48 172.172C1284.44 175.917 1278.8 181.425 1271.94 185.415C1270.85 186.046 1271.8 187.524 1272.93 187.001C1283.39 182.161 1294.72 179.85 1305.87 176.848C1317.77 173.643 1328.24 169.97 1340.86 169.647C1342.13 169.613 1342.13 167.777 1340.86 167.811C1329.15 168.11 1318.97 170.983 1307.92 174.344C1295.85 178.021 1283.4 180.112 1271.94 185.415C1272.27 185.944 1272.6 186.473 1272.93 187.001C1282.05 181.697 1289.63 174.855 1299.35 170.333C1312.2 164.362 1325.48 161.965 1338.57 168.811C1339.68 169.389 1340.67 167.803 1339.57 167.224" fill="#1A365B" fill-opacity="0.8"/>
<path d="M1357.8 179.28C1352.16 165.932 1353.71 154.3 1357.78 140.861C1361.37 128.989 1365.2 117.189 1370.54 105.884C1369.94 105.812 1369.34 105.739 1368.74 105.665C1372.18 117.114 1369.33 130.924 1367 142.332C1364.41 154.973 1359.26 166.656 1356.12 179.105C1355.83 180.257 1357.73 180.745 1358.02 179.593C1361.37 166.291 1366.65 153.775 1369.41 140.263C1371.68 129.203 1373.94 116.185 1370.64 105.178C1370.43 104.475 1369.2 104.196 1368.84 104.957C1363.05 117.222 1359.01 130.035 1355.12 142.911C1351.21 155.835 1350.54 167.066 1355.9 179.768C1356.36 180.857 1358.26 180.384 1357.8 179.28" fill="#1A365B" fill-opacity="0.8"/>
<path d="M1357.86 179.464C1335.27 175.917 1317.14 194.345 1302.82 207.857C1302.15 208.494 1302.82 209.677 1303.78 209.392C1312.58 206.79 1320.14 200.867 1327.99 196.462C1333.29 193.485 1338.62 191.075 1344.47 189.159C1349.33 187.568 1353.1 184.771 1357.75 182.85C1358.9 182.371 1357.9 180.789 1356.76 181.264C1352.32 183.103 1348.59 185.82 1343.94 187.389C1339.73 188.811 1335.76 190.209 1331.85 192.242C1322.47 197.111 1313.54 204.581 1303.26 207.621C1303.57 208.133 1303.89 208.644 1304.21 209.156C1317.96 196.178 1335.61 177.822 1357.34 181.234C1358.58 181.429 1359.11 179.659 1357.86 179.464" fill="#1A365B" fill-opacity="0.8"/>
<path d="M1376.48 192.202C1372.38 180.88 1378.05 168.011 1381.34 157.062C1383.37 150.339 1386.56 143.969 1388.85 137.325C1391.1 130.788 1391.05 123.771 1392.54 117.091C1391.91 117.091 1391.28 117.091 1390.65 117.091C1392.62 129.637 1393.03 142.177 1390.62 154.7C1388.13 167.693 1381.55 179.587 1375.76 191.484C1375.24 192.553 1376.93 193.487 1377.46 192.412C1383.39 180.228 1389.52 168.37 1392.52 155.187C1395.4 142.544 1394.53 129.291 1392.54 116.603C1392.4 115.697 1390.84 115.751 1390.65 116.603C1388.94 124.21 1388.65 131.898 1386.09 139.348C1383.69 146.323 1380.56 153.003 1378.38 160.061C1375.24 170.264 1370.77 182.14 1374.59 192.689C1374.99 193.806 1376.89 193.327 1376.48 192.202" fill="#1A365B" fill-opacity="0.8"/>
<path d="M1374.89 193.647C1363.41 196.895 1352.93 201.503 1343.53 208.548C1331.26 217.747 1322.02 230.088 1310.41 239.976C1309.64 240.632 1310.46 241.692 1311.37 241.51C1316.37 240.516 1320.17 237.087 1324.34 234.493C1330.38 230.74 1336.44 227.193 1342.21 223.074C1347.68 219.172 1352.87 214.95 1358.08 210.761C1363.96 206.038 1370.08 198.696 1377.07 195.623C1378.21 195.117 1377.21 193.535 1376.07 194.036C1371.66 195.977 1368.6 199.532 1365.05 202.572C1359.5 207.329 1353.73 211.88 1347.97 216.416C1341.54 221.487 1334.79 226.1 1327.69 230.311C1322.53 233.373 1316.91 238.533 1310.85 239.739C1311.17 240.251 1311.49 240.763 1311.81 241.274C1321.45 233.061 1329.65 223.563 1338.89 214.974C1349.24 205.357 1361.54 199.341 1375.41 195.418C1376.63 195.077 1376.11 193.303 1374.89 193.647" fill="#1A365B" fill-opacity="0.8"/>
<path d="M1405.21 210.671C1402.99 202.894 1399.83 196.249 1399.59 188.018C1399.36 180.147 1401.77 172.204 1404.76 164.923C1410.41 151.173 1416.88 137.858 1420.03 123.346C1419.4 123.346 1418.77 123.346 1418.14 123.346C1422.38 139.64 1416.54 155.734 1410.97 171.088C1408.67 177.416 1407.12 183.564 1406.51 190.22C1405.86 197.372 1407.5 204.901 1404.67 211.735C1404.21 212.841 1406.11 213.314 1406.56 212.222C1409.15 205.981 1408.12 199.217 1408.33 192.661C1408.63 183.585 1411.46 175.495 1414.52 166.999C1419.64 152.749 1423.94 137.833 1420.03 122.858C1419.81 122 1418.33 121.959 1418.14 122.858C1414.8 138.203 1407.83 152.342 1401.86 166.884C1399.09 173.61 1397.84 180.849 1397.62 188.018C1397.38 196.243 1401.1 203.4 1403.31 211.159C1403.64 212.303 1405.54 211.817 1405.21 210.671" fill="#1A365B" fill-opacity="0.8"/>
<path d="M1405.02 210.822C1397.47 211.279 1391.64 212.199 1385.21 216.096C1377.65 220.68 1371.08 226.623 1363.84 231.623C1357.21 236.202 1351.33 241.589 1345.46 246.979C1340.01 252 1333.63 255.689 1329.06 261.557C1328.54 262.225 1329.39 263.121 1330.17 262.905C1345.22 258.713 1358.08 250.23 1369.88 240.766C1381.26 231.631 1390.31 216.976 1405.62 213.421C1406.85 213.136 1406.33 211.366 1405.1 211.651C1392.87 214.489 1384.98 224.037 1376.73 232.227C1364.04 244.819 1347.51 256.161 1329.65 261.135C1330.02 261.585 1330.39 262.034 1330.76 262.483C1335.17 256.812 1341.31 252.887 1346.86 248.278C1352.91 243.249 1358.35 237.818 1364.83 233.21C1369.93 229.578 1374.88 225.779 1379.89 222.036C1387.9 216.047 1394.77 213.282 1405.02 212.658C1406.28 212.582 1406.29 210.745 1405.02 210.822" fill="#1A365B" fill-opacity="0.8"/>
<path d="M1432.87 227.138C1424.59 208.447 1427.86 192.096 1436.54 174.217C1443.12 160.677 1446.62 146.118 1444.72 131.266C1444.16 131.483 1443.6 131.7 1443.04 131.916C1453.04 143.885 1444.91 165.958 1441.01 178.616C1438.64 186.336 1436.2 193.915 1434.78 201.856C1433.27 210.31 1434.74 218.898 1433.03 227.29C1432.79 228.446 1434.68 228.94 1434.92 227.777C1436.81 218.533 1435.48 209.07 1437.14 199.724C1439.02 189.175 1443.15 179.058 1445.9 168.699C1448.89 157.472 1452.86 140.708 1444.43 130.616C1443.92 130.006 1442.66 130.5 1442.75 131.266C1445.09 149.521 1438.4 164.294 1431.17 180.752C1424.31 196.353 1424.05 212.004 1430.98 227.626C1431.45 228.706 1433.36 228.233 1432.87 227.138" fill="#1A365B" fill-opacity="0.8"/>
<path d="M1433.08 227.429C1432.3 217.159 1430.7 207.05 1432.37 196.777C1432.48 196.084 1431.35 195.786 1431.23 196.485C1429.55 206.856 1431.11 217.055 1431.9 227.429C1431.95 228.133 1433.13 228.137 1433.08 227.429" fill="#1A365B" fill-opacity="0.8"/>
<path d="M1432.4 226.326C1428.3 211.472 1429.3 198.47 1432.99 183.661C1433.16 182.969 1432.03 182.677 1431.86 183.367C1428.12 198.356 1427.11 211.585 1431.27 226.618C1431.46 227.306 1432.6 227.014 1432.4 226.326" fill="#1A365B" fill-opacity="0.8"/>
<path d="M1433.43 226.091C1434.32 213.089 1432.54 199.894 1436.46 187.207C1436.67 186.523 1435.53 186.233 1435.32 186.913C1431.37 199.704 1433.15 212.982 1432.25 226.091C1432.2 226.802 1433.38 226.797 1433.43 226.091Z" fill="#1A365B" fill-opacity="0.8"/>
<path d="M1439.15 178.328C1440.26 174.976 1440.71 171.487 1441.47 168.06C1441.63 167.368 1440.49 167.073 1440.34 167.768C1439.58 171.195 1439.13 174.684 1438.01 178.036C1437.78 178.715 1438.92 179.004 1439.15 178.328" fill="#1A365B" fill-opacity="0.8"/>
<path d="M1439.42 231.319C1423.46 229.888 1409.57 239.578 1399.77 250.431C1393.92 256.912 1389.79 264.803 1384.97 271.951C1379.6 279.913 1372.69 286.784 1366.55 294.212C1365.92 294.974 1367.11 295.902 1367.9 295.47C1379.97 288.852 1391.61 278.071 1399.83 267.566C1405.31 260.571 1409.99 253.508 1416.86 247.559C1424.1 241.282 1432.17 238.562 1440.45 234.034C1441.54 233.434 1440.55 231.846 1439.46 232.447C1433.42 235.752 1426.96 237.652 1421.36 241.724C1415.24 246.174 1409.82 251.062 1405.26 256.928C1394.51 270.73 1383.03 285.048 1366.91 293.883C1367.35 294.302 1367.8 294.721 1368.25 295.139C1373.25 289.081 1378.72 283.386 1383.57 277.216C1388.57 270.853 1392.54 263.768 1397.06 257.103C1405.93 244.004 1421.92 231.588 1439.42 233.155C1440.68 233.268 1440.67 231.431 1439.42 231.319" fill="#1A365B" fill-opacity="0.8"/>
<path d="M1405.21 210.661C1406.55 207.508 1405.9 204.158 1405.22 200.921C1403.9 194.69 1402.36 188.913 1402.12 182.491C1402.1 181.782 1400.92 181.779 1400.94 182.491C1401.1 186.954 1401.51 191.261 1402.56 195.623C1403.69 200.353 1406.11 205.583 1404.07 210.368C1403.79 211.028 1404.93 211.313 1405.21 210.661" fill="#1A365B" fill-opacity="0.8"/>
<path d="M1405.97 210.264C1407.23 206.245 1407.5 202.342 1407.25 198.161C1406.9 192.079 1404.25 186.603 1405.69 180.407C1405.85 179.714 1404.72 179.42 1404.56 180.115C1402.21 190.169 1408.06 199.691 1404.83 209.972C1404.62 210.655 1405.76 210.944 1405.97 210.264" fill="#1A365B" fill-opacity="0.8"/>
<path d="M1418.64 126.725C1418.33 130.529 1418.6 134.335 1418.31 138.14C1417.92 143.29 1416.16 148.353 1415.31 153.447C1415.19 154.142 1416.33 154.44 1416.44 153.739C1417.2 149.213 1418.41 144.777 1419.21 140.258C1420 135.777 1419.45 131.231 1419.82 126.725C1419.88 126.015 1418.7 126.019 1418.64 126.725" fill="#1A365B" fill-opacity="0.8"/>
<path d="M1418.29 126.664C1417.23 131.363 1416.94 136.16 1415.98 140.881C1414.96 145.977 1413.42 150.983 1412.29 156.063C1412.14 156.755 1413.27 157.05 1413.43 156.356C1414.56 151.273 1415.97 146.252 1417.12 141.173C1418.19 136.471 1418.37 131.657 1419.43 126.956C1419.59 126.263 1418.45 125.968 1418.29 126.664" fill="#1A365B" fill-opacity="0.8"/>
<path d="M1417.93 127.92C1417.31 137.291 1412.56 145.643 1409.75 154.515C1409.53 155.198 1410.67 155.487 1410.89 154.807C1413.73 145.835 1418.48 137.395 1419.11 127.92C1419.16 127.211 1417.98 127.215 1417.93 127.92Z" fill="#1A365B" fill-opacity="0.8"/>
<path d="M1376.23 191.364C1376.83 186.346 1377.47 181.816 1378.71 176.862C1379.86 172.248 1381.18 167.684 1382.73 163.171C1382.96 162.493 1381.82 162.205 1381.59 162.879C1379.82 168.043 1378.4 173.275 1377.08 178.552C1375.95 183.039 1375.59 186.857 1375.05 191.364C1374.97 192.069 1376.15 192.062 1376.23 191.364" fill="#1A365B" fill-opacity="0.8"/>
<path d="M1376.39 191.661C1382.49 183.978 1384.4 172.304 1386.61 163.23C1386.78 162.54 1385.64 162.246 1385.48 162.938C1383.29 171.886 1381.37 183.552 1375.38 191.104C1374.92 191.677 1375.95 192.225 1376.39 191.661" fill="#1A365B" fill-opacity="0.8"/>
<path d="M1376.67 191.227C1377.86 188.77 1377.87 186.102 1378.59 183.519C1379.61 179.816 1380.64 176.13 1381.47 172.382C1381.62 171.689 1380.48 171.393 1380.33 172.09C1379.61 175.379 1378.75 178.635 1377.83 181.882C1377.03 184.748 1376.97 187.965 1375.65 190.671C1375.34 191.315 1376.36 191.872 1376.67 191.227Z" fill="#1A365B" fill-opacity="0.8"/>
<path d="M1390.72 122.66C1391.82 130.228 1390.32 137.823 1388.91 145.266C1388.78 145.961 1389.92 146.257 1390.05 145.559C1391.49 137.908 1392.99 130.141 1391.86 122.368C1391.76 121.665 1390.62 121.967 1390.72 122.66" fill="#1A365B" fill-opacity="0.8"/>
<path d="M1390.66 122.964C1391.52 130.069 1388.8 137.777 1386.31 144.394C1386.06 145.066 1387.2 145.353 1387.45 144.686C1389.96 138.008 1392.71 130.163 1391.84 122.964C1391.76 122.268 1390.57 122.259 1390.66 122.964" fill="#1A365B" fill-opacity="0.8"/>
<path d="M1357.7 177.748C1357.8 175.051 1357.43 172.378 1357.53 169.68C1357.67 166.073 1358.47 162.497 1359.04 158.935C1359.15 158.24 1358.01 157.94 1357.9 158.641C1357.46 161.397 1356.96 164.142 1356.6 166.91C1356.12 170.548 1356.66 174.112 1356.52 177.748C1356.5 178.461 1357.68 178.457 1357.7 177.748" fill="#1A365B" fill-opacity="0.8"/>
<path d="M1356.94 176.3C1355.31 168.812 1354.96 161.28 1356.56 153.761C1356.71 153.067 1355.57 152.771 1355.42 153.469C1353.79 161.169 1354.13 168.924 1355.8 176.592C1355.96 177.289 1357.09 176.993 1356.94 176.3Z" fill="#1A365B" fill-opacity="0.8"/>
<path d="M1357.95 176.291C1357.62 169.776 1360.43 163.731 1361.71 157.429C1361.86 156.736 1360.72 156.439 1360.58 157.137C1359.27 163.543 1356.43 169.67 1356.77 176.291C1356.8 176.998 1357.98 177.001 1357.95 176.291" fill="#1A365B" fill-opacity="0.8"/>
<path d="M1369.13 108.163C1367.9 110.629 1368.3 113.526 1367.9 116.183C1367.39 119.626 1366.53 123.024 1365.84 126.438C1365.7 127.131 1366.83 127.426 1366.98 126.73C1367.59 123.744 1368.26 120.768 1368.82 117.772C1369.33 115.024 1368.91 111.203 1370.15 108.719C1370.47 108.079 1369.45 107.519 1369.13 108.163Z" fill="#1A365B" fill-opacity="0.8"/>
<path d="M1368.44 108.588C1365.98 114.553 1364.09 120.818 1363.7 127.223C1363.66 127.932 1364.84 127.927 1364.88 127.223C1365.27 120.923 1367.16 114.748 1369.57 108.881C1369.85 108.217 1368.71 107.933 1368.44 108.588" fill="#1A365B" fill-opacity="0.8"/>
<path d="M1368.67 110.003C1369.29 114.926 1369.15 119.823 1368.64 124.747C1368.57 125.455 1369.75 125.448 1369.82 124.747C1370.33 119.823 1370.47 114.926 1369.85 110.003C1369.77 109.305 1368.59 109.299 1368.67 110.003Z" fill="#1A365B" fill-opacity="0.8"/>
<path d="M1336.7 161.977C1334.01 156.905 1334.47 151.058 1332.8 145.707C1332.59 145.027 1331.45 145.316 1331.66 145.999C1333.37 151.458 1332.93 157.354 1335.68 162.534C1336.02 163.17 1337.04 162.612 1336.7 161.977" fill="#1A365B" fill-opacity="0.8"/>
<path d="M1334.52 159.093C1330.87 152.583 1330.27 145.439 1331.03 138.234C1331.11 137.526 1329.93 137.533 1329.85 138.234C1329.07 145.651 1329.76 152.965 1333.5 159.651C1333.85 160.281 1334.87 159.724 1334.52 159.093Z" fill="#1A365B" fill-opacity="0.8"/>
<path d="M1336.21 160.398C1336.5 152.607 1335.06 145.018 1334.03 137.319C1333.93 136.622 1332.75 136.614 1332.85 137.319C1333.87 145.013 1335.32 152.613 1335.03 160.398C1335 161.107 1336.18 161.106 1336.21 160.398Z" fill="#1A365B" fill-opacity="0.8"/>
<path d="M1339.44 92.3871C1338.17 98.2895 1337.72 104.311 1336.36 110.2C1336.2 110.892 1337.33 111.187 1337.49 110.492C1338.85 104.603 1339.3 98.5833 1340.57 92.6794C1340.72 91.9861 1339.59 91.6908 1339.44 92.3871Z" fill="#1A365B" fill-opacity="0.8"/>
<path d="M1338.9 93.5725C1336.07 99.6615 1334.45 106.072 1333.12 112.57C1332.98 113.264 1334.11 113.559 1334.26 112.862C1335.56 106.468 1337.14 100.123 1339.92 94.1293C1340.22 93.4844 1339.2 92.9232 1338.9 93.5725" fill="#1A365B" fill-opacity="0.8"/>
<path d="M1338.68 95.4293C1338.53 98.4143 1338.76 101.385 1338.81 104.37C1338.87 107.967 1337.69 111.507 1336.92 115.005C1336.77 115.699 1337.91 115.994 1338.06 115.299C1338.65 112.622 1339.49 109.946 1339.8 107.224C1340.25 103.303 1339.66 99.3631 1339.86 95.4293C1339.9 94.7198 1338.72 94.7227 1338.68 95.4293" fill="#1A365B" fill-opacity="0.8"/>
<path d="M1363.13 149.363C1364.7 145.169 1365 140.758 1365.68 136.391C1365.78 135.696 1364.65 135.396 1364.54 136.098C1363.87 140.464 1363.56 144.877 1361.99 149.071C1361.74 149.743 1362.87 150.029 1363.13 149.363" fill="#1A365B" fill-opacity="0.8"/>
<path d="M1361.18 143.624C1361.45 142.695 1361.66 141.755 1361.75 140.796C1361.82 140.088 1360.64 140.093 1360.57 140.796C1360.49 141.657 1360.29 142.498 1360.04 143.332C1359.84 144.016 1360.98 144.308 1361.18 143.624" fill="#1A365B" fill-opacity="0.8"/>
<path d="M1387.05 159.445C1387.47 156.88 1388.25 154.393 1388.83 151.859C1388.99 151.167 1387.85 150.872 1387.69 151.567C1387.11 154.101 1386.33 156.587 1385.92 159.152C1385.81 159.847 1386.94 160.147 1387.05 159.445Z" fill="#1A365B" fill-opacity="0.8"/>
<path d="M1405.91 177.929C1406.04 172.104 1407.69 166.694 1410.32 161.444C1410.64 160.803 1409.62 160.244 1409.3 160.887C1406.58 166.306 1404.86 171.92 1404.73 177.929C1404.72 178.641 1405.9 178.64 1405.91 177.929" fill="#1A365B" fill-opacity="0.8"/>
<path d="M1310.05 138.964C1308.54 131.756 1308.46 124.7 1309.47 117.434C1309.56 116.731 1308.38 116.74 1308.29 117.434C1307.27 124.793 1307.38 131.972 1308.91 139.256C1309.05 139.954 1310.19 139.659 1310.05 138.964" fill="#1A365B" fill-opacity="0.8"/>
<path d="M1309.9 139.095C1311.82 130.639 1314.11 122.238 1314.65 113.582C1314.69 112.87 1313.51 112.875 1313.47 113.582C1312.93 122.143 1310.66 130.444 1308.76 138.802C1308.6 139.494 1309.74 139.788 1309.9 139.095Z" fill="#1A365B" fill-opacity="0.8"/>
<path d="M1311.53 114.106C1311.98 110.951 1312.7 107.836 1313.28 104.701C1313.41 104.006 1312.28 103.71 1312.15 104.407C1311.54 107.642 1310.81 110.85 1310.35 114.106C1310.25 114.81 1311.43 114.8 1311.53 114.106Z" fill="#1A365B" fill-opacity="0.8"/>
<path d="M1317.82 67.7596C1316.4 77.6385 1315.58 87.5836 1313.87 97.4272C1313.75 98.1206 1314.88 98.4188 1315 97.7195C1316.74 87.7789 1317.56 77.737 1319 67.7596C1319.1 67.0575 1317.92 67.0677 1317.82 67.7596Z" fill="#1A365B" fill-opacity="0.8"/>
<path d="M1293.73 121.57C1293.14 113.695 1289.57 106.468 1288.01 98.7683C1287.87 98.0706 1286.73 98.3658 1286.87 99.0607C1288.41 106.661 1291.97 113.795 1292.55 121.57C1292.61 122.275 1293.78 122.279 1293.73 121.57" fill="#1A365B" fill-opacity="0.8"/>
<path d="M1293.73 119.603C1293.62 109.559 1292.08 99.6202 1291.24 89.621C1291.18 88.9188 1290 88.9129 1290.06 89.621C1290.9 99.6202 1292.44 109.559 1292.56 119.603C1292.56 120.314 1293.74 120.314 1293.73 119.603Z" fill="#1A365B" fill-opacity="0.8"/>
<path d="M1293.77 116.891C1292.67 112.436 1291.97 107.916 1291 103.438C1290.02 98.9225 1288.46 94.8638 1288.44 90.1704C1288.44 89.4609 1287.26 89.4609 1287.26 90.1704C1287.28 94.1881 1288.18 97.9707 1289.39 101.818C1290.95 106.805 1291.38 112.119 1292.63 117.184C1292.8 117.875 1293.94 117.581 1293.77 116.891" fill="#1A365B" fill-opacity="0.8"/>
<path d="M1290.31 86.8358C1289.22 83.5967 1289.09 80.2577 1288.91 76.8937C1288.88 76.1871 1287.7 76.1842 1287.73 76.8937C1287.92 80.3576 1288.05 83.795 1289.17 87.1281C1289.4 87.8038 1290.54 87.5145 1290.31 86.8358Z" fill="#1A365B" fill-opacity="0.8"/>
<path d="M1287.78 51.3334C1287.44 58.4433 1288.11 65.5503 1287.77 72.6616C1287.73 73.3726 1288.91 73.3697 1288.95 72.6616C1289.29 65.5503 1288.62 58.4433 1288.96 51.3334C1289 50.6224 1287.82 50.6254 1287.78 51.3334Z" fill="#1A365B" fill-opacity="0.8"/>
<path d="M1230.74 40.7068C1236.95 47.6845 1241.53 55.6934 1247.05 63.1293C1247.48 63.7081 1248.5 63.1573 1248.07 62.5726C1242.5 55.0602 1237.85 46.9779 1231.58 39.9268C1231.09 39.3803 1230.26 40.1648 1230.74 40.7068" fill="#1A365B" fill-opacity="0.8"/>
<path d="M1233.69 44.2499C1239 50.1156 1243.87 56.3147 1249.18 62.1819C1249.67 62.7239 1250.5 61.9409 1250.01 61.4018C1244.7 55.5362 1239.83 49.337 1234.52 43.4699C1234.03 42.9279 1233.2 43.7108 1233.69 44.2499" fill="#1A365B" fill-opacity="0.8"/>
<path d="M1269.19 88.6339C1267.24 86.2526 1266.07 83.419 1264.68 80.7381C1262.71 76.9319 1259.6 73.731 1257.15 70.1995C1256.73 69.6061 1255.71 70.1584 1256.12 70.7563C1258.34 73.941 1260.93 76.8702 1263.01 80.1416C1264.88 83.0972 1265.92 86.4363 1268.17 89.1906C1268.63 89.7474 1269.66 89.1994 1269.19 88.6339Z" fill="#1A365B" fill-opacity="0.8"/>
<path d="M1267.15 88.6809C1261.31 84.0639 1257.21 78.3304 1253.92 71.9286C1253.59 71.2896 1252.58 71.8463 1252.9 72.4853C1256.24 78.9782 1260.4 84.7807 1266.31 89.4624C1266.89 89.9178 1267.73 89.1421 1267.15 88.6809" fill="#1A365B" fill-opacity="0.8"/>
<path d="M1282.91 111.797C1275.24 112.079 1268.57 107.413 1261.4 105.535C1260.67 105.341 1260.36 106.406 1261.09 106.597C1268.35 108.502 1275.12 113.185 1282.91 112.898C1283.66 112.87 1283.67 111.767 1282.91 111.797" fill="#1A365B" fill-opacity="0.8"/>
<path d="M1227.77 96.4297C1235.05 97.3478 1242.08 99.1501 1248.86 101.762C1249.57 102.032 1249.87 100.967 1249.18 100.7C1242.39 98.0882 1235.36 96.2858 1228.09 95.3676C1227.34 95.2736 1227.02 96.3342 1227.77 96.4297" fill="#1A365B" fill-opacity="0.8"/>
<path d="M1242.86 126.893C1246.16 126.594 1249.38 125.799 1252.69 125.499C1256.52 125.154 1260.58 126.45 1264.4 126.816C1265.16 126.888 1265.15 125.786 1264.4 125.714C1261 125.389 1257.65 124.721 1254.24 124.445C1250.44 124.138 1246.62 125.452 1242.86 125.792C1242.11 125.859 1242.1 126.963 1242.86 126.893Z" fill="#1A365B" fill-opacity="0.8"/>
<path d="M1302.73 133.987C1299.83 133.388 1297.38 131.81 1294.56 130.996C1291.12 130.003 1287.62 129.535 1284.27 128.243C1283.57 127.972 1283.26 129.038 1283.96 129.306C1286.88 130.434 1289.91 131.051 1292.98 131.743C1296.3 132.49 1299.09 134.363 1302.42 135.049C1303.16 135.202 1303.48 134.14 1302.73 133.987Z" fill="#1A365B" fill-opacity="0.8"/>
<path d="M1301.71 134.41C1295.89 131.871 1289.4 130.318 1282.94 130.555C1282.18 130.585 1282.18 131.687 1282.94 131.657C1289.17 131.426 1295.49 132.906 1301.11 135.364C1301.8 135.662 1302.4 134.712 1301.71 134.41" fill="#1A365B" fill-opacity="0.8"/>
<path d="M1315.48 146.109C1308.33 146.034 1301.44 147.509 1294.64 149.451C1293.91 149.657 1294.22 150.72 1294.95 150.512C1301.65 148.602 1308.44 147.138 1315.48 147.211C1316.24 147.218 1316.24 146.116 1315.48 146.109Z" fill="#1A365B" fill-opacity="0.8"/>
<path d="M1314.35 146.036C1306.01 144.637 1297.78 145.306 1289.88 148.192C1289.18 148.448 1289.49 149.514 1290.2 149.254C1297.89 146.443 1305.91 145.735 1314.04 147.098C1314.78 147.223 1315.1 146.161 1314.35 146.036" fill="#1A365B" fill-opacity="0.8"/>
<path d="M1278.27 154.459C1282.45 153.951 1286.52 152.962 1290.61 152.007C1291.35 151.836 1291.04 150.773 1290.3 150.945C1286.32 151.875 1282.35 152.862 1278.27 153.357C1277.52 153.447 1277.51 154.55 1278.27 154.459Z" fill="#1A365B" fill-opacity="0.8"/>
<path d="M1257.89 159.912C1262.75 160.843 1266.91 157.799 1271.56 157.109C1272.31 156.999 1271.99 155.938 1271.25 156.049C1266.87 156.695 1262.76 159.724 1258.2 158.85C1257.46 158.706 1257.15 159.769 1257.89 159.912Z" fill="#1A365B" fill-opacity="0.8"/>
<path d="M1280.84 183.142C1286.79 179.874 1293.31 177.97 1299.78 175.826C1300.49 175.59 1300.18 174.527 1299.47 174.765C1292.89 176.94 1286.28 178.872 1280.24 182.19C1279.59 182.551 1280.18 183.502 1280.84 183.142" fill="#1A365B" fill-opacity="0.8"/>
<path d="M1280.66 182.732C1287.24 177.585 1294.52 173.4 1303.03 171.831C1303.78 171.694 1303.46 170.631 1302.72 170.769C1294.01 172.372 1286.56 176.689 1279.83 181.953C1279.24 182.409 1280.08 183.183 1280.66 182.732Z" fill="#1A365B" fill-opacity="0.8"/>
<path d="M1338.2 168.408C1331.1 165.587 1323.42 168.179 1316.39 169.96C1315.66 170.145 1315.97 171.208 1316.71 171.022C1323.36 169.337 1330.87 166.679 1337.6 169.36C1338.29 169.635 1338.9 168.686 1338.2 168.408Z" fill="#1A365B" fill-opacity="0.8"/>
<path d="M1336.93 167.636C1329.22 161.97 1318.26 165.747 1309.79 167.658C1309.05 167.823 1309.36 168.886 1310.1 168.72C1318.08 166.922 1328.83 163.075 1336.1 168.417C1336.69 168.851 1337.53 168.076 1336.93 167.636" fill="#1A365B" fill-opacity="0.8"/>
<path d="M1307.8 172.57C1309.4 171.613 1311.16 170.952 1313.02 170.598C1313.76 170.458 1313.45 169.396 1312.7 169.536C1310.75 169.907 1308.89 170.618 1307.21 171.616C1306.57 171.999 1307.16 172.953 1307.8 172.57" fill="#1A365B" fill-opacity="0.8"/>
<path d="M1334.01 129.828C1333.67 126.735 1334.1 123.756 1335.24 120.838C1335.51 120.17 1334.37 119.885 1334.11 120.546C1332.92 123.553 1332.48 126.639 1332.83 129.828C1332.91 130.529 1334.09 130.537 1334.01 129.828" fill="#1A365B" fill-opacity="0.8"/>
<path d="M1307.66 206.9C1312.6 203.771 1317.31 200.359 1322.24 197.231C1322.87 196.833 1322.28 195.878 1321.65 196.278C1316.72 199.407 1312 202.821 1307.07 205.948C1306.44 206.345 1307.03 207.299 1307.66 206.9" fill="#1A365B" fill-opacity="0.8"/>
<path d="M1306.77 207.344C1311.99 201.363 1318.42 194.783 1326.69 192.784C1327.43 192.604 1327.12 191.543 1326.38 191.721C1317.9 193.769 1311.28 200.444 1305.93 206.562C1305.45 207.11 1306.28 207.893 1306.77 207.344" fill="#1A365B" fill-opacity="0.8"/>
<path d="M1357.27 180.651C1352.01 180.727 1347.56 183.081 1342.85 184.981C1342.15 185.262 1342.75 186.213 1343.44 185.933C1347.95 184.112 1352.23 181.826 1357.27 181.752C1358.03 181.741 1358.03 180.639 1357.27 180.651Z" fill="#1A365B" fill-opacity="0.8"/>
<path d="M1336.43 186.477C1338.6 185.021 1340.78 183.624 1343.52 183.464C1344.27 183.42 1344.28 182.318 1343.52 182.362C1340.54 182.537 1338.2 183.939 1335.84 185.524C1335.22 185.935 1335.81 186.891 1336.43 186.477Z" fill="#1A365B" fill-opacity="0.8"/>
<path d="M1330.82 191.508C1332.31 190.857 1333.72 190.061 1335.21 189.412C1335.9 189.111 1335.3 188.16 1334.62 188.459C1333.13 189.111 1331.72 189.907 1330.23 190.557C1329.54 190.857 1330.14 191.808 1330.82 191.508Z" fill="#1A365B" fill-opacity="0.8"/>
<path d="M1372.01 195.085C1364.9 200.775 1357.91 206.596 1350.8 212.284C1350.22 212.747 1351.06 213.524 1351.63 213.064C1358.74 207.376 1365.73 201.553 1372.84 195.865C1373.42 195.402 1372.58 194.625 1372.01 195.085" fill="#1A365B" fill-opacity="0.8"/>
<path d="M1370.07 196.36C1362.92 201.372 1354.95 205.174 1347.55 209.833C1346.93 210.231 1347.52 211.184 1348.15 210.786C1355.54 206.126 1363.52 202.324 1370.66 197.314C1371.26 196.89 1370.67 195.934 1370.07 196.36Z" fill="#1A365B" fill-opacity="0.8"/>
<path d="M1348.79 212.8C1350.59 211.871 1352.02 210.52 1353.57 209.272C1354.15 208.807 1353.31 208.03 1352.73 208.492C1351.27 209.68 1349.91 210.965 1348.19 211.846C1347.53 212.19 1348.12 213.142 1348.79 212.8" fill="#1A365B" fill-opacity="0.8"/>
<path d="M1315.18 238.984C1318.51 237.9 1320.79 235.521 1323.51 233.534C1327.82 230.373 1331.99 227.049 1336.16 223.726C1336.73 223.263 1335.9 222.487 1335.32 222.946C1332.29 225.362 1329.25 227.773 1326.17 230.134C1322.81 232.713 1318.99 236.576 1314.87 237.922C1314.16 238.154 1314.46 239.219 1315.18 238.984" fill="#1A365B" fill-opacity="0.8"/>
<path d="M1316.36 237.547C1323.19 232.272 1328.94 225.935 1335.61 220.511C1336.19 220.042 1335.35 219.266 1334.78 219.729C1328.1 225.157 1322.36 231.494 1315.53 236.768C1314.94 237.221 1315.78 237.997 1316.36 237.547" fill="#1A365B" fill-opacity="0.8"/>
<path d="M1372.62 233.063C1381.99 225.123 1390.91 213.912 1404.39 212.598C1405.14 212.525 1405.14 211.423 1404.39 211.496C1390.51 212.849 1381.43 224.112 1371.78 232.281C1371.22 232.76 1372.06 233.538 1372.62 233.063" fill="#1A365B" fill-opacity="0.8"/>
<path d="M1374.96 228.393C1377.38 226.407 1379.23 223.914 1381.66 221.928C1382.23 221.458 1381.39 220.682 1380.82 221.148C1378.4 223.135 1376.54 225.629 1374.12 227.613C1373.55 228.083 1374.39 228.859 1374.96 228.393Z" fill="#1A365B" fill-opacity="0.8"/>
<path d="M1332.1 260.885C1340.05 255.588 1347.3 249.443 1355.36 244.291C1355.99 243.894 1355.4 242.937 1354.77 243.34C1346.7 248.491 1339.45 254.636 1331.5 259.933C1330.89 260.342 1331.48 261.298 1332.1 260.885" fill="#1A365B" fill-opacity="0.8"/>
<path d="M1358.43 245.784C1360.98 243.761 1363.66 241.877 1366.22 239.854C1366.8 239.394 1365.96 238.62 1365.38 239.075C1362.82 241.096 1360.15 242.981 1357.59 245.005C1357.01 245.466 1357.85 246.241 1358.43 245.784" fill="#1A365B" fill-opacity="0.8"/>
<path d="M1358.98 241.136C1360.86 239.635 1362.75 238.16 1364.89 236.976C1365.54 236.613 1364.95 235.66 1364.29 236.023C1362.07 237.257 1360.1 238.798 1358.15 240.358C1357.57 240.82 1358.41 241.595 1358.98 241.136Z" fill="#1A365B" fill-opacity="0.8"/>
<path d="M1439.24 232.214C1429.87 233.223 1420.34 240.001 1413.27 245.471C1412.68 245.922 1413.52 246.699 1414.1 246.248C1420.76 241.104 1430.44 234.263 1439.24 233.315C1439.99 233.236 1440 232.133 1439.24 232.214" fill="#1A365B" fill-opacity="0.8"/>
<path d="M1437.34 231.771C1425.12 233.286 1413.85 239.313 1406.9 248.903C1406.47 249.493 1407.5 250.043 1407.92 249.459C1414.61 240.224 1425.57 234.332 1437.34 232.873C1438.08 232.781 1438.09 231.678 1437.34 231.771" fill="#1A365B" fill-opacity="0.8"/>
<path d="M1412.2 324.039C1393.43 310.893 1370.83 307.771 1350.07 299.688C1324.29 289.646 1300.31 275.919 1276.19 262.12C1253.51 249.138 1230.06 237.504 1205.31 229.702C1193.44 225.963 1181.27 223.483 1168.96 222.133C1154.93 220.593 1140.68 222.376 1126.68 223.622C1125.5 223.727 1125.49 225.686 1126.68 225.581C1138.93 224.491 1151.41 222.918 1163.72 223.647C1177.66 224.473 1191.42 227.542 1204.82 231.591C1230.31 239.294 1254.33 251.836 1277.59 265.142C1299.62 277.748 1321.6 290.381 1345.07 299.774C1366.98 308.544 1391.45 311.846 1411.27 325.729C1412.27 326.427 1413.19 324.73 1412.2 324.039" fill="#1A365B" fill-opacity="0.8"/>
<path d="M1186.48 226.256C1175.79 235.478 1161.16 234.978 1148.17 233.779C1140.87 233.104 1133.6 231.946 1126.4 230.478C1120.71 229.319 1114.89 229.82 1109.23 228.52C1103.02 227.091 1111.36 222.463 1112.43 221.875C1114.47 220.757 1116.62 219.872 1118.67 218.765C1127.12 214.197 1134.95 210.268 1144.59 209.556C1153.25 208.917 1161.67 211.571 1169.89 214.055C1173.22 215.064 1176.37 216.312 1179.37 218.193C1182.73 220.295 1184.65 224.241 1187.58 226.857C1188.49 227.663 1189.8 226.285 1188.89 225.473C1186.36 223.224 1184.71 219.943 1182.07 217.877C1179.04 215.515 1176 214.063 1172.46 212.821C1162.54 209.343 1152.44 207.019 1141.96 207.792C1132.35 208.502 1123.91 213.739 1115.52 218.269C1113.17 219.541 1104.54 222.233 1104.8 226.33C1105.1 230.945 1111.26 230.985 1114.49 231.251C1123.82 232.02 1132.91 233.89 1142.21 235.065C1157.41 236.985 1175.12 238.563 1187.78 227.641C1188.71 226.845 1187.39 225.467 1186.48 226.256" fill="#1A365B" fill-opacity="0.8"/>
<path d="M1221.78 234.196C1209.42 234.137 1201.14 216.952 1195.14 207.459C1187.42 195.264 1179.59 183.185 1170.83 171.806C1170.53 172.351 1170.23 172.897 1169.93 173.442C1183.39 176.091 1197.22 179.573 1208.26 188.639C1219.76 198.086 1226.56 219.783 1220.61 234.289C1220.15 235.435 1221.73 236.433 1222.21 235.277C1227.47 222.432 1223.4 203.625 1215.04 193.086C1204.02 179.22 1186.5 174.719 1170.42 171.555C1169.48 171.37 1168.93 172.419 1169.52 173.191C1180.62 187.598 1189.8 203.313 1199.97 218.422C1205.21 226.202 1211.86 236.108 1221.78 236.154C1222.97 236.16 1222.97 234.201 1221.78 234.196Z" fill="#1A365B" fill-opacity="0.8"/>
<path d="M1235.97 244.185C1235.04 258.677 1215.73 263.06 1204.87 264.152C1189.27 265.72 1173.64 264.404 1158.5 269.487C1158.8 270.032 1159.1 270.577 1159.4 271.123C1168.47 258.649 1180.02 249.899 1194.56 246.271C1202.05 244.403 1209.86 244.72 1217.49 244.674C1223.45 244.639 1231.14 247.55 1236.77 245.128C1237.86 244.661 1237.38 242.766 1236.28 243.241C1232.77 244.748 1228.81 243.315 1225.17 242.964C1220.9 242.551 1216.56 242.71 1212.28 242.765C1204.67 242.862 1197.45 243.326 1190.08 245.456C1177.01 249.231 1166.25 258.526 1158.1 269.738C1157.58 270.443 1158.02 271.702 1158.99 271.374C1177.12 265.29 1196.14 269.084 1214.41 264.592C1224.18 262.188 1237.03 256.362 1237.81 244.185C1237.9 242.923 1236.05 242.932 1235.97 244.185" fill="#1A365B" fill-opacity="0.8"/>
<path d="M1266.66 255.636C1255.61 244.69 1247.71 228.654 1242.27 213.801C1239.13 205.208 1238.43 195.763 1237.91 186.65C1237.69 182.934 1237.55 179.212 1237.36 175.494C1237.25 173.612 1237.12 171.731 1236.97 169.852C1236.95 169.535 1242.16 173.665 1242.45 173.943C1253.72 184.608 1260.82 199.427 1265.62 214.389C1269.41 226.22 1275.78 245.747 1266.1 256.028C1265.26 256.921 1266.56 258.306 1267.4 257.412C1277.8 246.373 1271.22 226.505 1267.4 213.868C1261.67 194.939 1251.53 177.887 1236.25 166.169C1235.71 165.751 1234.8 166.304 1234.87 167.014C1236.4 183.647 1235.01 201.647 1241.59 217.278C1247.55 231.463 1254.53 246.3 1265.36 257.021C1266.23 257.88 1267.54 256.498 1266.66 255.636" fill="#1A365B" fill-opacity="0.8"/>
<path d="M1317.68 285.214C1315.25 280.508 1311.61 277.146 1307.92 273.56C1302.32 268.125 1297.68 262.329 1294.37 255.043C1290.16 245.772 1290.34 235.163 1289.59 225.136C1289.39 222.406 1288.81 219.67 1288.32 216.993C1287.91 214.739 1284.56 201.878 1288.52 203.722C1301.69 209.85 1310.25 226.097 1314.6 239.72C1317.64 249.242 1318.13 257.668 1316.78 267.582C1315.96 273.644 1315.37 279.5 1316.36 285.576C1316.56 286.82 1318.34 286.291 1318.14 285.056C1316.48 274.951 1319.62 264.989 1319.67 254.868C1319.7 247.12 1316.59 238.544 1313.72 231.541C1308.52 218.888 1298.66 204.956 1285.79 200.542C1285.22 200.344 1284.63 200.871 1284.63 201.486C1284.61 209.544 1286.75 217.196 1287.75 225.136C1288.86 233.942 1288.71 242.443 1290.93 251.104C1292.55 257.452 1296.3 263.25 1300.22 268.218C1305.21 274.538 1312.29 278.845 1316.08 286.202C1316.66 287.309 1318.25 286.321 1317.68 285.214" fill="#1A365B" fill-opacity="0.8"/>
<path d="M1266.18 256.093C1268.91 246.011 1264.26 233.908 1259.86 225.085C1259.52 224.415 1258.57 225.009 1258.9 225.679C1263.14 234.156 1267.74 246.088 1265.11 255.78C1264.91 256.51 1265.98 256.82 1266.18 256.093" fill="#1A365B" fill-opacity="0.8"/>
<path d="M1265.81 255.309C1268.16 244.41 1258.1 235.047 1254.33 225.868C1254.04 225.176 1253.09 225.774 1253.37 226.462C1256.99 235.251 1266.98 244.647 1264.74 254.997C1264.58 255.735 1265.65 256.047 1265.81 255.309" fill="#1A365B" fill-opacity="0.8"/>
<path d="M1264.65 253.681C1256.93 241.804 1250.48 229.345 1246.64 215.432C1246.44 214.707 1245.37 215.016 1245.57 215.745C1249.44 229.749 1255.91 242.304 1263.69 254.275C1264.09 254.894 1265.05 254.307 1264.65 253.681" fill="#1A365B" fill-opacity="0.8"/>
<path d="M1266.91 254.917C1270.3 241.905 1267.9 229.429 1262.07 217.642C1261.74 216.971 1260.78 217.565 1261.11 218.236C1266.81 229.753 1269.17 241.868 1265.85 254.605C1265.66 255.337 1266.72 255.646 1266.91 254.917" fill="#1A365B" fill-opacity="0.8"/>
<path d="M1236.78 170.837C1243.53 180.589 1250.34 189.872 1253.68 201.642C1253.89 202.366 1254.96 202.057 1254.75 201.33C1251.38 189.493 1244.54 180.07 1237.74 170.243C1237.32 169.64 1236.36 170.224 1236.78 170.837" fill="#1A365B" fill-opacity="0.8"/>
<path d="M1237.1 173.438C1239.31 180.489 1241.52 187.54 1243.73 194.591C1243.96 195.307 1245.02 195 1244.8 194.279C1242.59 187.228 1240.38 180.177 1238.16 173.126C1237.94 172.41 1236.87 172.717 1237.1 173.438Z" fill="#1A365B" fill-opacity="0.8"/>
<path d="M1237.1 176.18C1239.18 183.901 1240.2 191.865 1241.89 199.684C1242.05 200.422 1243.11 200.109 1242.96 199.372C1241.26 191.553 1240.25 183.588 1238.16 175.868C1237.97 175.141 1236.9 175.45 1237.1 176.18Z" fill="#1A365B" fill-opacity="0.8"/>
<path d="M1221.58 235.411C1218.54 225.817 1213.04 216.57 1205.1 210.772C1204.51 210.342 1203.96 211.361 1204.54 211.787C1212.23 217.401 1217.57 226.439 1220.51 235.723C1220.74 236.438 1221.8 236.13 1221.58 235.411" fill="#1A365B" fill-opacity="0.8"/>
<path d="M1219.22 234.759C1211.92 228.545 1205.71 220.533 1201.98 211.374C1201.7 210.68 1200.75 211.279 1201.03 211.968C1204.78 221.193 1211.09 229.332 1218.44 235.59C1218.99 236.059 1219.78 235.233 1219.22 234.759" fill="#1A365B" fill-opacity="0.8"/>
<path d="M1221.94 233.844C1219.39 221.848 1216.34 210.997 1207.79 202.246C1207.28 201.72 1206.5 202.549 1207.01 203.077C1215.41 211.682 1218.37 222.422 1220.88 234.156C1221.03 234.895 1222.1 234.581 1221.94 233.844" fill="#1A365B" fill-opacity="0.8"/>
<path d="M1221.96 230.866C1221.71 218.379 1217.69 206.904 1210.37 197.153C1209.93 196.561 1209.15 197.398 1209.59 197.984C1216.73 207.486 1220.61 218.707 1220.86 230.866C1220.87 231.622 1221.98 231.624 1221.96 230.866" fill="#1A365B" fill-opacity="0.8"/>
<path d="M1171.74 174.181C1181.49 179.693 1191.69 184.451 1199.27 193.284C1199.75 193.844 1200.53 193.011 1200.05 192.453C1192.41 183.549 1182.14 178.729 1172.3 173.166C1171.67 172.81 1171.11 173.825 1171.74 174.181Z" fill="#1A365B" fill-opacity="0.8"/>
<path d="M1172.73 176.048C1179.47 182.454 1186.1 188.889 1191.44 196.691C1191.86 197.297 1192.82 196.71 1192.4 196.097C1186.99 188.213 1180.33 181.694 1173.51 175.217C1172.98 174.713 1172.2 175.541 1172.73 176.048" fill="#1A365B" fill-opacity="0.8"/>
<path d="M1192.14 182.075C1196.08 183.718 1198.78 187.248 1201.48 190.542C1201.95 191.114 1202.73 190.279 1202.27 189.71C1199.41 186.231 1196.58 182.672 1192.44 180.941C1191.77 180.664 1191.49 181.801 1192.14 182.075Z" fill="#1A365B" fill-opacity="0.8"/>
<path d="M1191.44 190.815C1193.04 193.327 1194.88 195.626 1197.06 197.593C1197.6 198.08 1198.39 197.253 1197.84 196.762C1195.74 194.86 1193.95 192.654 1192.4 190.221C1192 189.597 1191.05 190.184 1191.44 190.815" fill="#1A365B" fill-opacity="0.8"/>
<path d="M1236.25 245.636C1227.93 250.989 1218.88 252.878 1209.25 252.999C1208.53 253.008 1208.53 254.183 1209.25 254.174C1219.05 254.051 1228.35 252.096 1236.8 246.651C1237.41 246.259 1236.86 245.242 1236.25 245.636" fill="#1A365B" fill-opacity="0.8"/>
<path d="M1235.51 245.636C1229.56 249.849 1222.85 247.33 1216.25 247.514C1215.54 247.535 1215.54 248.71 1216.25 248.69C1223.1 248.497 1229.93 250.999 1236.07 246.651C1236.66 246.233 1236.1 245.214 1235.51 245.636" fill="#1A365B" fill-opacity="0.8"/>
<path d="M1235.4 247.295C1229.96 251.763 1223.68 254.464 1217.45 257.388C1216.79 257.693 1217.36 258.706 1218 258.403C1224.34 255.432 1230.66 252.662 1236.18 248.126C1236.74 247.662 1235.95 246.837 1235.4 247.295" fill="#1A365B" fill-opacity="0.8"/>
<path d="M1161.61 268.979C1170.66 262.621 1180.33 258.668 1191.18 257.699C1191.89 257.637 1191.9 256.46 1191.18 256.524C1180.12 257.511 1170.29 261.478 1161.05 267.964C1160.46 268.38 1161.01 269.398 1161.61 268.979" fill="#1A365B" fill-opacity="0.8"/>
<path d="M1164.19 265.062C1172.13 259.277 1180.37 255.285 1189.86 253.369C1190.56 253.228 1190.26 252.096 1189.56 252.236C1179.94 254.178 1171.69 258.181 1163.63 264.047C1163.05 264.473 1163.6 265.492 1164.19 265.062" fill="#1A365B" fill-opacity="0.8"/>
<path d="M1185.29 227.144C1177.65 227.637 1170.09 228.989 1162.43 229.103C1161.72 229.113 1161.72 230.289 1162.43 230.278C1170.09 230.164 1177.65 228.812 1185.29 228.32C1186 228.274 1186 227.099 1185.29 227.144Z" fill="#1A365B" fill-opacity="0.8"/>
<path d="M1186.42 224.183C1177.55 216.813 1167.04 215.647 1156.31 213.455C1155.62 213.312 1155.32 214.445 1156.02 214.588C1166.49 216.728 1176.94 217.785 1185.63 225.014C1186.19 225.475 1186.98 224.65 1186.42 224.183" fill="#1A365B" fill-opacity="0.8"/>
<path d="M1183.59 222.856C1173.23 219.404 1162.64 214.913 1151.6 216.589C1150.89 216.696 1151.19 217.828 1151.89 217.722C1162.69 216.084 1173.17 220.617 1183.3 223.99C1183.98 224.217 1184.27 223.083 1183.59 222.856" fill="#1A365B" fill-opacity="0.8"/>
<path d="M1185.29 225.969C1173.69 226 1162.23 226.554 1150.86 229.124C1150.16 229.281 1150.46 230.414 1151.15 230.257C1162.43 227.708 1173.79 227.175 1185.29 227.144C1186 227.143 1186 225.967 1185.29 225.969" fill="#1A365B" fill-opacity="0.8"/>
<path d="M1106.77 227.144C1112.46 227.035 1118.04 225.681 1123.73 225.578C1124.44 225.565 1124.44 224.389 1123.73 224.402C1118.04 224.506 1112.46 225.86 1106.77 225.969C1106.06 225.983 1106.06 227.159 1106.77 227.144Z" fill="#1A365B" fill-opacity="0.8"/>
<path d="M1107.66 226.34C1113.41 224.636 1118.9 222.12 1124.38 219.621C1125.03 219.324 1124.47 218.312 1123.82 218.607C1118.42 221.067 1113.03 223.53 1107.36 225.207C1106.68 225.41 1106.97 226.544 1107.66 226.34" fill="#1A365B" fill-opacity="0.8"/>
<path d="M1317.27 281.767C1309.64 274.222 1309.57 261.633 1305.19 252.114C1304.88 251.434 1303.93 252.029 1304.24 252.708C1308.67 262.338 1308.74 274.932 1316.49 282.598C1317.01 283.113 1317.79 282.284 1317.27 281.767" fill="#1A365B" fill-opacity="0.8"/>
<path d="M1316.17 281.375C1308.1 273.286 1302.63 262.655 1299.35 251.471C1299.14 250.75 1298.07 251.058 1298.29 251.784C1301.62 263.161 1307.18 273.977 1315.38 282.206C1315.9 282.726 1316.68 281.897 1316.17 281.375" fill="#1A365B" fill-opacity="0.8"/>
<path d="M1317.41 282.026C1313.09 271.094 1316.66 259.036 1312.99 247.946C1312.76 247.236 1311.69 247.541 1311.93 248.258C1315.6 259.355 1312.01 271.382 1316.35 282.338C1316.62 283.026 1317.69 282.725 1317.41 282.026" fill="#1A365B" fill-opacity="0.8"/>
<path d="M1311.9 260.637C1312.19 257.013 1311.1 253.757 1309.62 250.547C1309.3 249.867 1308.35 250.463 1308.66 251.141C1310.07 254.177 1311.07 257.212 1310.8 260.637C1310.74 261.393 1311.85 261.387 1311.9 260.637" fill="#1A365B" fill-opacity="0.8"/>
<path d="M1285.53 203.077C1292.43 210.322 1296.94 219.662 1299.76 229.455C1299.97 230.178 1301.04 229.87 1300.83 229.143C1297.95 219.161 1293.35 209.63 1286.31 202.246C1285.8 201.713 1285.02 202.543 1285.53 203.077" fill="#1A365B" fill-opacity="0.8"/>
<path d="M1285.39 202.426C1288.31 211.918 1290.53 221.551 1292.02 231.414C1292.13 232.16 1293.2 231.842 1293.08 231.101C1291.6 221.239 1289.38 211.605 1286.45 202.114C1286.23 201.397 1285.16 201.703 1285.39 202.426" fill="#1A365B" fill-opacity="0.8"/>
<path d="M1287 203.077C1292.22 208.909 1298.08 213.999 1302.03 220.978C1302.39 221.626 1303.35 221.035 1302.98 220.384C1298.99 213.324 1293.07 208.151 1287.78 202.246C1287.29 201.696 1286.51 202.528 1287 203.077" fill="#1A365B" fill-opacity="0.8"/>
<path d="M1302.61 245.063C1301.18 241.703 1299.4 238.513 1298.25 235.019C1298.01 234.308 1296.94 234.614 1297.18 235.331C1298.36 238.922 1300.18 242.202 1301.66 245.657C1301.95 246.345 1302.91 245.748 1302.61 245.063Z" fill="#1A365B" fill-opacity="0.8"/>
<path d="M1254.75 213.474C1253.68 210.765 1252.87 207.956 1251.8 205.247C1251.53 204.559 1250.46 204.861 1250.73 205.56C1251.8 208.268 1252.62 211.077 1253.68 213.786C1253.95 214.474 1255.03 214.172 1254.75 213.474Z" fill="#1A365B" fill-opacity="0.8"/>
<path d="M1197.82 256.132C1200.35 256.105 1202.84 255.711 1205.34 255.328C1206.04 255.22 1205.74 254.088 1205.04 254.195C1202.64 254.562 1200.25 254.931 1197.82 254.957C1197.11 254.965 1197.11 256.14 1197.82 256.132" fill="#1A365B" fill-opacity="0.8"/>
<path d="M1402.67 58.2991C1397.6 58.2991 1397.6 65.644 1402.67 65.644C1407.74 65.644 1407.74 58.2991 1402.67 58.2991Z" fill="#1A365B" fill-opacity="0.8"/>
<path d="M1418.4 52.4232C1413.32 52.4232 1413.32 59.7681 1418.4 59.7681C1423.47 59.7681 1423.47 52.4232 1418.4 52.4232Z" fill="#1A365B" fill-opacity="0.8"/>
<path d="M1407.39 43.6093C1402.32 43.6093 1402.32 50.9542 1407.39 50.9542C1412.46 50.9542 1412.46 43.6093 1407.39 43.6093Z" fill="#1A365B" fill-opacity="0.8"/>
<path d="M1175.77 92.5755C1170.7 92.5755 1170.7 99.9203 1175.77 99.9203C1180.84 99.9203 1180.84 92.5755 1175.77 92.5755Z" fill="#1A365B" fill-opacity="0.8"/>
<path d="M1225.74 140.725C1220.67 140.725 1220.67 148.07 1225.74 148.07C1230.81 148.07 1230.81 140.725 1225.74 140.725Z" fill="#1A365B" fill-opacity="0.8"/>
<path d="M137.129 379.744C138.124 362.196 143.989 344.999 145.422 327.492C147.004 308.121 140.296 291.555 133.041 274.039C125.941 256.895 120.629 241.317 126.752 222.482C132.624 204.415 148.363 188.541 167.509 180.376C183.493 173.56 199.869 177.632 214.588 182.923C228.876 188.063 242.248 192.928 257.602 195.549C288.323 200.795 327.543 209.023 351.672 182.779C352.674 181.687 350.888 180.386 349.883 181.481C334.134 198.611 311.184 200.262 289.016 198.165C270.953 196.456 251.665 193.575 234.851 188.048C221.362 183.612 208.762 177.409 194.323 175.153C179.226 172.796 164.889 177.928 152.417 186.205C123.965 205.083 116.146 236.452 126.268 263.61C133.434 282.849 143.826 301.204 143.398 322.304C143.008 341.588 135.838 360.675 134.741 379.986C134.664 381.353 137.05 381.096 137.129 379.744" fill="#1A365B"/>
<path d="M227.2 187.572C231.306 213.686 254.752 236.094 282.869 243.261C284.319 243.63 284.798 241.529 283.368 241.165C256.354 234.279 233.531 212.408 229.588 187.33C229.378 186.001 226.991 186.236 227.2 187.572Z" fill="#1A365B"/>
<path d="M146.788 192.856C164.298 178.19 159.865 154.823 164.852 136.327C165.216 134.977 162.877 134.677 162.515 136.021C157.642 154.096 162.08 177.255 144.999 191.558C143.845 192.525 145.646 193.813 146.788 192.856Z" fill="#1A365B"/>
<path d="M129.684 208.868C118.799 198.479 115.206 184.117 110.27 170.822C109.798 169.552 107.529 170.345 108 171.614C113.098 185.345 116.882 199.836 128.099 210.543C129.11 211.509 130.684 209.824 129.684 208.868" fill="#1A365B"/>
<path d="M129.828 209.778C112.754 205.022 103.263 192.09 100.857 176.705C99.8267 170.12 101.091 163.356 101.621 156.694C101.907 153.083 102.096 149.504 102.517 145.891C102.868 142.88 102.47 138.294 106.422 141.133C117.182 148.852 121.963 162.643 125.103 174.357C126.913 181.11 127.839 188.139 128.165 195.149C128.404 200.328 126.907 205.504 128.258 210.519C128.611 211.826 130.878 211.023 130.528 209.727C128.629 202.679 130.725 193.855 129.847 186.519C129.044 179.79 127.434 173.185 125.362 166.754C121.655 155.243 115.286 143.638 104.045 136.843C103.305 136.396 102.34 136.713 102.084 137.527C99.5113 145.676 99.6475 153.848 98.7446 162.121C97.9724 169.201 98.0655 175.927 99.579 182.794C102.58 196.408 113.965 207.609 128.75 211.727C130.177 212.122 131.267 210.178 129.828 209.778" fill="#1A365B"/>
<path d="M152.759 185.362C154.221 168.907 144.639 154.272 148.984 137.615C152.568 123.877 166.435 113.778 176.005 103.015C178.134 100.622 178.969 96.8662 180.384 101.024C181.707 104.905 181.593 109.434 181.662 113.525C181.796 121.593 181.545 129.743 181.188 137.833C180.796 146.658 178.996 155.345 174.611 163.557C171.127 170.085 160.276 181.332 152.704 183.973C151.241 184.484 151.987 186.448 153.45 185.937C160.853 183.355 166.234 176.234 171.463 171.197C177.891 165.008 180.557 156.76 182.276 148.897C184.323 139.532 183.769 129.866 183.986 120.489C184.176 112.246 184.657 103.548 180.92 96.0522C180.609 95.4292 179.453 95.0387 178.891 95.799C169.459 108.601 155.207 118.422 148.385 132.622C139.712 150.665 151.967 167.654 150.371 185.604C150.25 186.968 152.638 186.707 152.759 185.362" fill="#1A365B"/>
<path d="M230.668 199.412C230.637 208.48 228.602 215.651 232.294 224.23C235.24 231.086 241.578 236.495 247.833 240.967C262.259 251.281 282.556 256.553 301.331 257.581C302.297 257.633 302.896 256.937 302.715 256.137C299.633 242.481 296.976 230.574 284.055 222.115C269.177 212.377 248.086 210.607 233.956 200.077C232.816 199.225 231.231 200.899 232.371 201.751C243.257 209.864 259.679 213.592 272.626 218.779C280.478 221.925 287.466 226.383 292.403 232.619C297.151 238.619 298.314 247.416 299.914 254.571C300.217 255.932 283.121 252.957 281.533 252.603C271.782 250.437 262.507 246.789 254.077 242.19C245.755 237.65 238.854 231.26 234.563 223.438C230.264 215.605 233.025 207.555 233.056 199.17C233.06 197.804 230.674 198.056 230.668 199.412" fill="#1A365B"/>
<path d="M247.295 192.199C255.978 182.706 268.434 184.051 280.148 184.96C290.375 185.752 300.251 184.752 310.522 183.044C322.075 181.125 333.481 177.707 344.448 173.697C347.943 172.42 351.559 170.802 354.684 168.846C357.387 167.153 361.004 162.396 364.431 162.127C364.854 162.093 365.25 161.83 365.438 161.488C365.507 161.367 365.576 161.243 365.642 161.12C364.908 161.115 364.173 161.108 363.441 161.101C367.064 168.666 362.186 180.63 358.812 188.26C353.202 200.953 337.018 209.363 322.964 211.937C308.812 214.529 294.046 211.328 280.882 207.922C268.54 204.728 256.774 200.926 248.498 192.005C247.559 190.993 245.559 192.267 246.507 193.291C255.716 203.215 268.794 207.022 282.534 210.577C297.707 214.504 313.539 216.505 329.54 212.674C342.785 209.502 354.937 199.982 360.946 189.089C365.165 181.442 369.449 168.113 365.711 160.309C365.326 159.508 364.005 159.392 363.51 160.291C363.709 159.933 359.316 162.558 359.039 162.76C354.757 165.877 351.946 168.133 346.841 170.46C333.491 176.548 317.925 179.912 303.485 182.021C291.766 183.731 281.143 182.224 269.585 182.204C260.039 182.185 251.919 183.892 245.507 190.901C244.507 191.994 246.292 193.295 247.295 192.199" fill="#1A365B"/>
<path d="M128.913 209.224C125.43 207.363 123.497 204.38 120.728 201.887C116.907 198.447 112.861 195.368 109.935 191.226C109.462 190.554 108.267 191.326 108.744 191.998C111.474 195.868 115.064 198.905 118.787 201.999C122.116 204.766 124.279 208.263 128.264 210.397C129.032 210.806 129.67 209.632 128.913 209.224" fill="#1A365B"/>
<path d="M129.378 208.051C126.168 198.225 121.345 188.936 119.885 178.619C119.772 177.817 118.339 177.959 118.454 178.762C119.929 189.192 124.771 198.59 128.016 208.526C128.268 209.298 129.629 208.82 129.378 208.051" fill="#1A365B"/>
<path d="M128.682 206.219C125.875 194.41 126.278 182.047 122.003 170.584C121.72 169.823 120.358 170.298 120.641 171.059C124.913 182.514 124.517 194.895 127.32 206.694C127.507 207.483 128.867 207 128.682 206.219Z" fill="#1A365B"/>
<path d="M126.88 206.965C119.591 196.916 110.781 187.883 106.064 176.442C105.755 175.692 104.392 176.164 104.703 176.917C109.46 188.454 118.328 197.593 125.689 207.737C126.173 208.405 127.366 207.633 126.88 206.965" fill="#1A365B"/>
<path d="M153.692 182.11C156.784 171.708 155.651 161.204 154.257 150.91C154.149 150.108 152.717 150.25 152.826 151.053C154.204 161.237 155.35 171.63 152.289 181.927C152.05 182.733 153.455 182.912 153.692 182.11" fill="#1A365B"/>
<path d="M154.124 183.98C157.933 178.947 162.308 174.592 164.7 168.885C167.466 162.286 168.209 155.172 169.664 148.363C169.838 147.55 168.436 147.366 168.261 148.18C167.068 153.771 166.164 159.384 164.6 164.93C162.572 172.108 157.626 177.154 153.051 183.201C152.528 183.892 153.594 184.68 154.124 183.98" fill="#1A365B"/>
<path d="M155.434 183.819C168.29 172.393 175.603 160.723 179.145 145.353C179.333 144.542 177.931 144.358 177.743 145.169C176.176 151.969 174.393 158.511 170.595 164.77C166.506 171.503 160.449 177.63 154.361 183.041C153.688 183.64 154.766 184.414 155.434 183.819" fill="#1A365B"/>
<path d="M171.624 159.839C172.554 155.422 174.1 151.096 174.217 146.616C174.238 145.796 172.808 145.948 172.787 146.759C172.668 151.125 171.126 155.35 170.222 159.656C170.049 160.468 171.454 160.653 171.624 159.839" fill="#1A365B"/>
<path d="M178.451 99.4049C177.823 108.477 174.789 117.291 171.49 125.996C171.19 126.786 172.596 126.959 172.892 126.179C176.236 117.355 179.247 108.454 179.881 99.2618C179.939 98.4391 178.506 98.5973 178.451 99.4049" fill="#1A365B"/>
<path d="M177.965 98.8234C175.952 107.628 169.323 115.064 164.212 122.762C163.732 123.49 165.015 123.982 165.496 123.261C170.676 115.453 177.325 107.937 179.367 99.007C179.552 98.195 178.15 98.013 177.965 98.8234Z" fill="#1A365B"/>
<path d="M172.807 115.612C171.38 117.724 169.987 119.888 169.393 122.278C169.194 123.09 170.595 123.272 170.796 122.462C171.362 120.184 172.725 118.121 174.09 116.111C174.578 115.387 173.295 114.895 172.807 115.612Z" fill="#1A365B"/>
<path d="M178.176 114.924C178.601 117.013 178.471 119.119 178.26 121.26C178.181 122.069 179.582 122.262 179.662 121.444C179.883 119.198 180.055 116.977 179.606 114.781C179.447 113.995 178.013 114.132 178.176 114.924" fill="#1A365B"/>
<path d="M161.155 125.368C162.598 122.779 164.21 120.26 166.021 117.842C166.539 117.149 165.472 116.361 164.948 117.063C163.069 119.577 161.378 122.179 159.872 124.869C159.452 125.622 160.733 126.118 161.155 125.368Z" fill="#1A365B"/>
<path d="M102.549 139.585C105.641 144.447 107.348 149.731 108.193 155.353C108.312 156.153 109.745 156.011 109.624 155.21C108.747 149.369 106.956 143.864 103.741 138.814C103.301 138.122 102.111 138.896 102.549 139.585Z" fill="#1A365B"/>
<path d="M103.755 140.054C108.025 145.158 112.205 150.138 114.669 156.237C114.974 156.99 116.336 156.517 116.031 155.762C113.527 149.563 109.299 144.477 104.947 139.283C104.418 138.647 103.219 139.416 103.755 140.054" fill="#1A365B"/>
<path d="M102.213 142.313C102.189 147.685 102.237 153.032 103.144 158.3C103.281 159.094 104.713 158.955 104.574 158.157C103.669 152.887 103.619 147.542 103.644 142.17C103.649 141.35 102.215 141.499 102.213 142.313Z" fill="#1A365B"/>
<path d="M110.092 158.545C110.367 160.135 110.598 161.729 110.876 163.315C111.013 164.109 112.445 163.971 112.306 163.172C112.03 161.583 111.799 159.989 111.523 158.402C111.386 157.608 109.954 157.747 110.092 158.545Z" fill="#1A365B"/>
<path d="M232.93 205.859C233.992 216.091 239.345 224.682 245.308 233.039C245.785 233.711 246.98 232.938 246.499 232.268C240.675 224.101 235.4 215.723 234.36 205.716C234.277 204.907 232.845 205.05 232.93 205.859Z" fill="#1A365B"/>
<path d="M234.783 204.501C240.342 214.458 253.487 219.56 264.557 223.653C265.391 223.958 266.037 222.79 265.206 222.48C254.519 218.533 241.517 213.646 236.144 204.026C235.75 203.322 234.385 203.789 234.783 204.501Z" fill="#1A365B"/>
<path d="M233.99 203.037C240.828 207.999 247.811 212.959 256.819 214.593C257.713 214.756 258.008 213.495 257.119 213.335C248.368 211.746 241.578 206.85 234.941 202.033C234.249 201.532 233.297 202.534 233.99 203.037" fill="#1A365B"/>
<path d="M238.466 210.512C243.98 217.112 251.325 221.969 259.309 226.078C260.086 226.476 260.723 225.302 259.958 224.905C252.179 220.904 245.034 216.172 239.657 209.741C239.128 209.105 237.931 209.873 238.466 210.512" fill="#1A365B"/>
<path d="M233.867 206.6C237.777 214.277 241.593 221.948 246.837 228.946C247.331 229.607 248.525 228.837 248.029 228.175C242.858 221.271 239.087 213.696 235.228 206.125C234.86 205.403 233.496 205.874 233.867 206.6" fill="#1A365B"/>
<path d="M300.547 255.668C294.586 250.778 287.919 247.311 279.927 245.419C279.051 245.212 278.762 246.471 279.628 246.676C287.357 248.507 293.832 251.945 299.596 256.671C300.251 257.21 301.2 256.203 300.547 255.668" fill="#1A365B"/>
<path d="M300.369 254.998C295.937 250.366 291.879 245.454 287.445 240.821C286.872 240.223 285.674 240.987 286.253 241.592C290.684 246.226 294.741 251.137 299.177 255.769C299.75 256.367 300.949 255.605 300.369 254.998Z" fill="#1A365B"/>
<path d="M300.255 254.623C296.619 245.123 292.425 236.722 283.951 230.019C283.284 229.491 282.334 230.498 283 231.023C291.284 237.578 295.342 245.823 298.893 255.098C299.183 255.856 300.545 255.381 300.255 254.623" fill="#1A365B"/>
<path d="M278.858 233.653C280.68 234.643 282.141 236.023 283.675 237.311C284.325 237.857 285.272 236.849 284.627 236.308C283.09 235.017 281.628 233.637 279.81 232.649C279.056 232.241 278.094 233.239 278.858 233.653Z" fill="#1A365B"/>
<path d="M272.703 246.912C275.607 248.435 278.76 249.492 281.952 250.506C282.801 250.773 283.452 249.606 282.6 249.334C279.406 248.324 276.255 247.266 273.352 245.739C272.579 245.334 271.942 246.51 272.703 246.912Z" fill="#1A365B"/>
<path d="M248.639 192.029C257.273 189.544 264.007 189.537 272.195 192.131C276.434 193.475 280.531 194.606 285.198 194.082C286.121 193.978 286.051 192.717 285.13 192.821C278.128 193.604 272.081 190.352 265.587 188.966C259.814 187.732 253.849 189.222 248.191 190.85C247.297 191.11 247.75 192.286 248.639 192.029Z" fill="#1A365B"/>
<path d="M249.945 192.761C255.556 191.291 261.066 192.606 266.31 193.976C267.17 194.2 267.826 193.031 266.958 192.803C261.303 191.329 255.529 190.003 249.498 191.582C248.598 191.817 249.051 192.994 249.945 192.761" fill="#1A365B"/>
<path d="M248.812 191.944C258.291 184.329 266.917 185.742 277.838 187.518C285.558 188.771 293.342 189.575 301.248 189.899C302.159 189.936 302.467 188.679 301.548 188.641C290.183 188.177 279.184 186.483 268.133 184.579C260.237 183.22 254.01 186.121 248.018 190.936C247.321 191.494 248.103 192.513 248.812 191.944" fill="#1A365B"/>
<path d="M290.357 192.809C294.003 193.708 297.75 193.257 301.534 193.359C302.444 193.383 302.752 192.126 301.833 192.101C298.065 192.001 294.288 192.446 290.656 191.551C289.783 191.336 289.494 192.595 290.357 192.809Z" fill="#1A365B"/>
<path d="M249.842 194.245C260.451 201.675 274.499 204.288 287.877 206.13C288.782 206.255 289.078 204.998 288.177 204.873C275.03 203.062 261.223 200.545 250.793 193.24C250.092 192.748 249.139 193.751 249.842 194.245" fill="#1A365B"/>
<path d="M362.659 161.928C361.781 170.402 359.967 178.659 354.249 185.976C353.712 186.663 354.78 187.449 355.322 186.755C361.205 179.223 363.155 170.859 364.061 162.111C364.145 161.3 362.743 161.11 362.659 161.928" fill="#1A365B"/>
<path d="M361.509 162.192C356.844 172.5 346.868 178.809 335.642 182.886C334.769 183.203 335.217 184.381 336.09 184.064C347.653 179.865 357.995 173.283 362.792 162.691C363.14 161.917 361.863 161.415 361.509 162.192Z" fill="#1A365B"/>
<path d="M362.915 163.185C359.982 168.167 357.744 173.264 352.982 177.225C352.288 177.801 353.368 178.576 354.055 178.004C358.912 173.964 361.2 168.769 364.198 163.684C364.636 162.937 363.356 162.441 362.915 163.185" fill="#1A365B"/>
<path d="M325.337 181.562C329.35 181.251 332.966 179.822 336.62 178.243C337.466 177.877 337.024 176.697 336.173 177.064C332.64 178.592 329.158 179.997 325.27 180.301C324.342 180.371 324.417 181.634 325.337 181.562Z" fill="#1A365B"/>
<path d="M328.517 190.832C332.103 190.155 335.3 188.507 338.265 186.542C339.026 186.04 338.237 185.027 337.471 185.534C334.733 187.346 331.764 188.944 328.449 189.571C327.541 189.742 327.606 191.005 328.517 190.832Z" fill="#1A365B"/>
<path d="M340.666 198.459C344.927 197.763 347.939 195.076 350.964 192.428C351.643 191.834 350.564 191.061 349.891 191.65C347.183 194.021 344.426 196.569 340.598 197.198C339.684 197.346 339.751 198.61 340.666 198.459" fill="#1A365B"/>
<path d="M-36.0763 337.461C-27.8074 303.865 -17.7397 272.562 2.15261 241.886C22.4918 210.514 43.8027 179.567 66.5561 149.337C67.4962 148.086 65.27 147.039 64.333 148.285C40.837 179.504 18.9513 211.495 -2.05347 243.89C-21.2448 273.489 -30.5989 304.534 -38.576 336.945C-38.9257 338.365 -36.4282 338.889 -36.0763 337.461Z" fill="#1A365B"/>
<path d="M40.3799 152.617C40.1529 161.055 42.3602 169.138 43.3232 177.43C43.3938 178.034 44.2698 178.334 44.8949 178.173C56.2272 175.276 67.4494 172.016 78.9061 169.595C80.5668 169.244 79.9583 167.106 78.3077 167.454C68.6129 169.504 59.0858 172.145 49.5213 174.684C43.6987 176.229 44.9668 170.445 44.3052 166.697C43.481 162.016 42.8638 157.349 42.9924 152.556C43.0298 151.113 40.4183 151.178 40.3799 152.617" fill="#1A365B"/>
<path d="M18.6405 162.502C18.7804 173.072 27.3671 182.702 36.3957 188.886C46.0078 195.471 60.1408 192.467 71.5404 190.162C73.2054 189.826 72.5964 187.686 70.942 188.021C60.5509 190.125 49.5199 192.422 39.922 188.182C30.2384 183.91 21.3781 171.873 21.253 162.44C21.2331 161.003 18.6201 161.063 18.6405 162.502" fill="#1A365B"/>
<path d="M16.4799 200.492C16.0009 204.251 15.2613 213.712 21.3607 214.196C27.8129 214.708 36.4999 211.224 41.4663 207.522C42.7795 206.544 40.9701 205.029 39.6666 206.002C35.4226 209.166 29.0318 211.363 23.6327 211.964C17.7939 212.616 18.6529 203.878 19.0924 200.43C19.2773 198.984 16.6621 199.06 16.4799 200.492" fill="#1A365B"/>
<path d="M-3.21432 206.656C-1.1139 214.763 -0.372336 227.422 9.81878 231.067C19.1145 234.389 32.16 227.769 41.274 225.531C42.9219 225.126 42.3215 222.986 40.6756 223.39C31.5453 225.632 21.8304 230.381 12.3108 229.302C2.016 228.136 1.10096 212.834 -0.669182 206.003C-1.02903 204.614 -3.57369 205.269 -3.21432 206.656" fill="#1A365B"/>
<path d="M-22.0749 243.8C-20.6082 249.975 -18.4515 259.805 -10.7038 262.203C-4.08621 264.251 5.04124 257.745 10.7843 255.424C12.3412 254.795 11.0766 252.91 9.53149 253.534C4.07263 255.74 -1.23119 259.336 -7.21123 260.161C-15.7126 261.335 -18.3308 248.192 -19.5297 243.146C-19.8606 241.752 -22.4048 242.409 -22.0749 243.8" fill="#1A365B"/>
<path d="M-29.7416 258.685C-28.54 264.708 -24.7825 270.834 -18.3483 273.585C-11.5598 276.486 -2.33687 270.86 4.0353 268.783C5.63295 268.261 5.04679 266.118 3.43692 266.643C-2.76349 268.663 -9.2629 272.712 -15.9685 271.856C-22.5208 271.017 -26.2333 262.866 -27.1964 258.031C-27.4759 256.626 -30.0207 257.289 -29.7416 258.685Z" fill="#1A365B"/>
<path d="M66.5081 148.424C66.2841 145.835 69.283 136.516 73.7012 137.457C77.7148 138.309 74.7623 142.345 73.0981 143.894C71.0966 145.759 68.2765 147.63 65.4438 148.355C63.8027 148.777 64.4011 150.917 66.0422 150.496C71.6221 149.067 83.6494 140.404 75.9281 135.907C69.0066 131.874 63.524 144.182 63.8957 148.485C64.0168 149.902 66.6301 149.851 66.5081 148.424Z" fill="#1A365B"/>
<path d="M80.0273 168.984C82.3592 165.858 92.3788 158.546 96.5653 161.679C100.733 164.799 94.3291 167.957 91.3023 168.645C87.7485 169.453 83.0117 169.605 79.7784 168.25C78.3079 167.634 76.9241 169.608 78.4021 170.227C84.8775 172.938 103.22 171.284 99.7202 161.825C96.6124 153.425 80.941 163.728 77.8037 167.931C76.8692 169.186 79.0949 170.231 80.0273 168.984" fill="#1A365B"/>
<path d="M42.7575 151.598C39.9977 149.188 34.8637 142.245 39.818 139.374C42.0682 138.071 42.9742 142.092 43.2054 143.2C43.8309 146.187 42.6969 149.336 41.0656 152.087C40.2883 153.397 42.5056 154.459 43.2877 153.135C45.519 149.376 46.53 145.507 45.5138 141.528C44.9862 139.461 43.1487 136.112 39.9276 136.995C30.8279 139.478 36.965 149.839 40.8626 153.242C42.0034 154.239 43.9003 152.594 42.7575 151.598" fill="#1A365B"/>
<path d="M72.1246 189.16C73.555 186.392 76.5309 183.985 79.3737 182.25C82.435 180.383 89.0762 179.58 88.0128 184.504C87.1426 188.533 74.7922 187.906 71.4746 188.068C69.7884 188.149 69.6897 190.387 71.3754 190.305C76.7359 190.042 92.4429 190.514 90.4747 182.592C87.8244 171.925 72.3738 183.322 69.6256 188.644C68.9297 189.995 71.4403 190.49 72.1246 189.16" fill="#1A365B"/>
<path d="M20.8529 161.516C18.7714 159.097 17.3053 151.691 21.1318 149.618C22.3296 148.969 24.0247 149.459 24.3949 150.525C24.8236 151.762 24.1066 153.35 23.6109 154.551C22.6728 156.824 21.1371 159.277 19.2389 161.121C18.0934 162.23 19.8849 163.759 21.0403 162.638C24.4497 159.331 32.0261 147.121 22.2612 147.147C14.2512 147.167 15.6999 159.398 18.5584 162.714C19.5148 163.825 21.8243 162.641 20.8529 161.516" fill="#1A365B"/>
<path d="M41.8017 207.122C43.451 204.88 50.7335 199.845 53.7464 201.997C54.6863 202.666 54.6259 204.307 54.1397 205.207C53.4659 206.45 51.4351 206.773 50.0813 206.919C47.4058 207.208 44.2906 206.868 41.9294 205.893C40.4568 205.285 39.0725 207.258 40.5531 207.87C43.9525 209.273 48.3112 209.603 52.1159 208.834C55.9993 208.049 58.2894 204.47 56.5256 201.447C53.2478 195.827 42.2472 202.44 39.5786 206.07C38.6536 207.328 40.8803 208.377 41.8017 207.122" fill="#1A365B"/>
<path d="M18.3268 199.754C17.8042 197.814 12.8065 190.686 15.3557 189.048C18.4463 187.067 18.12 192.605 17.9843 193.673C17.733 195.639 17.1517 197.728 16.2376 199.587C15.5659 200.947 18.0749 201.444 18.7366 200.103C20.3691 196.786 23.5362 185.228 15.6081 186.68C8.23815 188.03 14.9472 197.305 15.7816 200.407C16.1537 201.793 18.6984 201.137 18.3268 199.754" fill="#1A365B"/>
<path d="M41.9052 224.891C42.9567 223.641 53.1915 218.286 53.3435 220.695C53.5055 223.265 43.6678 224.046 41.7849 223.821C40.1438 223.626 39.3669 225.804 41.0171 226C45.0804 226.484 57.2114 225.163 55.8152 219.669C54.4318 214.222 41.6616 221.491 39.6816 223.838C38.6637 225.045 40.8946 226.085 41.9052 224.891Z" fill="#1A365B"/>
<path d="M-1.18474 204.915C-3.68852 203.64 -6.21524 198.614 -4.66545 196.133C-4.20156 195.388 -2.76222 195.4 -2.1418 195.832C-1.20011 196.484 -1.21098 198.006 -1.20292 198.964C-1.18666 200.841 -1.62679 203.1 -2.79449 204.785C-3.67922 206.062 -1.45562 207.115 -0.571374 205.836C1.19449 203.285 1.61543 199.975 1.28977 197.186C0.973915 194.48 -1.74371 192.37 -5.04387 193.687C-10.9237 196.034 -6.19824 205.037 -2.56148 206.891C-1.15404 207.608 0.217679 205.63 -1.18474 204.915" fill="#1A365B"/>
<path d="M10.8427 254.556C12.1602 252.024 17.5234 248.516 20.7217 248.427C21.5488 248.404 20.3723 249.886 20.2105 250.049C19.3332 250.931 18.0801 251.522 16.9127 252.053C15.1185 252.872 12.3126 253.85 10.3571 253.295C8.78599 252.85 8.03436 255.033 9.5893 255.474C13.7678 256.658 26.2851 252.13 23.1198 247.193C20.4982 243.1 9.9512 250.945 8.62116 253.502C7.92864 254.834 10.1434 255.902 10.8427 254.556" fill="#1A365B"/>
<path d="M55.5892 282.033C58.9893 269.666 74.1984 261.379 84.6029 255.588C98.7859 247.695 115.285 245.579 130.723 241.24C146.277 236.871 161.713 232.92 176.482 226.23C181.768 223.836 186.606 221.174 190.918 217.3C192.685 215.712 203.656 206.243 204.54 208.523C207.065 215.037 202.079 224.617 199.357 230.258C196.474 236.228 192.854 241.826 188.787 247.045C179.431 259.051 166.357 267.34 152.769 273.722C138.531 280.41 123.167 284.778 107.744 287.644C90.8012 290.792 68.4611 293.886 54.4259 281.843C53.3541 280.922 51.7896 282.477 52.8702 283.404C65.9779 294.651 83.4114 293.016 99.5848 291.103C118.305 288.89 136.71 283.349 153.879 275.627C169.769 268.481 183.53 258.144 193.82 243.989C200.564 234.716 210.666 218.271 206.06 206.382C205.821 205.766 205.08 205.284 204.445 205.722C201.312 207.884 197.62 208.659 194.424 211.224C188.09 216.308 182.83 220.783 175.371 224.324C157.482 232.818 137.328 237.72 118.132 242.316C103.082 245.919 89.4478 249.738 76.2275 257.968C67.4491 263.437 56.3724 270.89 53.4686 281.447C53.0902 282.821 55.2126 283.404 55.5892 282.033" fill="#1A365B"/>
<path d="M54.8205 283.688C98.5856 271.666 142.046 257.773 181.355 234.565C182.578 233.842 181.471 231.935 180.246 232.657C141.098 255.772 97.8182 269.587 54.2362 281.56C52.8705 281.933 53.4513 284.064 54.8205 283.688" fill="#1A365B"/>
<path d="M112.36 264.696C113.328 260.607 114.973 256.743 116.32 252.774C116.596 251.963 115.32 251.617 115.049 252.421C113.701 256.391 112.057 260.254 111.089 264.343C110.89 265.173 112.165 265.526 112.36 264.696" fill="#1A365B"/>
<path d="M128.708 259.858C133.616 261.937 137.945 265.345 143.227 266.482C144.058 266.662 144.41 265.385 143.579 265.207C138.317 264.071 133.954 260.656 129.06 258.583C128.275 258.249 127.937 259.533 128.708 259.858Z" fill="#1A365B"/>
<path d="M141.863 253.039C141.984 249.754 143.711 246.884 145.293 244.102C145.715 243.358 144.575 242.691 144.153 243.432C142.445 246.435 140.673 249.501 140.543 253.039C140.511 253.894 141.831 253.892 141.863 253.039" fill="#1A365B"/>
<path d="M155.106 248.819C159.451 250.217 163.33 252.64 168.041 252.377C168.888 252.331 168.891 251.006 168.041 251.052C163.458 251.308 159.68 248.899 155.458 247.544C154.645 247.281 154.298 248.562 155.106 248.819" fill="#1A365B"/>
<path d="M169.185 240.871C172.43 241.823 175.596 243.012 178.708 244.339C179.482 244.669 180.155 243.526 179.375 243.194C176.156 241.823 172.893 240.58 169.537 239.596C168.719 239.354 168.372 240.635 169.185 240.871Z" fill="#1A365B"/>
<path d="M156.269 259.793C157.811 260.803 159.486 261.593 161.266 262.066C162.089 262.285 162.438 261.01 161.618 260.791C159.94 260.344 158.386 259.601 156.936 258.649C156.22 258.18 155.558 259.328 156.269 259.793Z" fill="#1A365B"/>
<path d="M174.025 251.027C175.704 251.481 177.171 252.388 178.708 253.17C179.465 253.555 180.133 252.414 179.375 252.025C177.735 251.191 176.163 250.234 174.377 249.752C173.553 249.529 173.205 250.806 174.025 251.027Z" fill="#1A365B"/>
<path d="M186.344 237.78C187.478 238.161 188.628 238.519 189.707 239.04C190.469 239.407 191.14 238.266 190.374 237.896C189.192 237.326 187.939 236.921 186.696 236.506C185.887 236.234 185.542 237.512 186.344 237.78Z" fill="#1A365B"/>
<path d="M192.064 228.066C193.429 228.555 194.658 229.345 196.024 229.832C196.828 230.122 197.171 228.842 196.376 228.558C195.01 228.068 193.781 227.279 192.416 226.791C191.611 226.504 191.268 227.782 192.064 228.066Z" fill="#1A365B"/>
<path d="M97.45 251.979C96.5859 254.146 95.7377 256.315 95.2502 258.603C95.0707 259.436 96.3448 259.789 96.5208 258.956C97.01 256.667 97.8583 254.498 98.7206 252.332C99.0374 251.538 97.7598 251.197 97.45 251.979Z" fill="#1A365B"/>
<path d="M105.81 251.096C105.394 252.453 105.347 253.837 105.345 255.247C105.345 256.102 106.665 256.102 106.665 255.247C106.667 253.954 106.702 252.697 107.08 251.449C107.332 250.63 106.056 250.284 105.81 251.096" fill="#1A365B"/>
<path d="M128.224 244.649C128.197 246.282 127.81 247.875 127.784 249.507C127.769 250.361 129.089 250.361 129.103 249.507C129.13 247.875 129.517 246.282 129.543 244.649C129.557 243.795 128.238 243.797 128.224 244.649Z" fill="#1A365B"/>
<path d="M133.943 242C133.943 243.441 133.86 244.833 133.528 246.239C133.329 247.069 134.601 247.422 134.798 246.592C135.159 245.072 135.263 243.558 135.263 242C135.263 241.147 133.943 241.147 133.943 242" fill="#1A365B"/>
<path d="M156.382 237.143C156.382 237.88 156.382 238.615 156.382 239.351C156.382 240.206 157.702 240.206 157.702 239.351C157.702 238.615 157.702 237.88 157.702 237.143C157.702 236.29 156.382 236.29 156.382 237.143Z" fill="#1A365B"/>
<path d="M163.006 232.992C162.556 234.351 162.142 235.702 162.102 237.143C162.079 237.998 163.399 237.996 163.422 237.143C163.459 235.824 163.867 234.587 164.277 233.346C164.548 232.533 163.272 232.185 163.006 232.992" fill="#1A365B"/>
<path d="M-134.087 252.005C-115.27 234.867 -93.9935 220.154 -74.5746 203.592C-55.2668 187.127 -39.6034 168.273 -29.2992 146.119C-18.7619 123.462 -12.6485 99.5187 -5.18233 75.9668C3.2281 49.4445 20.5327 29.4296 44.9971 13.0066C46.1385 12.2402 45.024 10.4918 43.8665 11.2694C24.8562 24.0299 6.8922 40.2549 -1.96078 60.4405C-12.2364 83.862 -16.7283 109.238 -26.0166 133.022C-36.183 159.056 -52.1922 181.009 -74.0246 200.319C-93.8161 217.824 -116.154 232.806 -135.673 250.582C-136.689 251.507 -135.105 252.931 -134.087 252.005Z" fill="#1A365B"/>
<path d="M6.6484 47.6864C12.0236 29.1012 23.2149 4.07454 47.9982 2.05566C56.1757 1.38754 60.8038 7.04971 58.7612 13.8356C56.9999 19.6942 50.2844 24.4854 45.4055 28.33C34.3469 37.0446 19.7407 44.6082 5.48027 47.8876C4.08272 48.2096 4.67575 50.1497 6.0751 49.8277C23.8241 45.7465 40.6718 35.8292 53.5168 24.2601C58.9726 19.3465 66.9907 7.581 57.3457 2.25368C46.6222 -3.66931 33.5496 3.21482 25.4528 9.85746C13.9139 19.3256 8.30759 33.9504 4.48939 47.1519C4.12567 48.4093 6.28647 48.9405 6.6484 47.6864" fill="#1A365B"/>
<path d="M-8.86419 86.8789C-4.99403 79.1882 2.02958 72.6937 8.72532 66.9284C16.5086 60.2278 27.0279 52.558 38.3428 52.3182C45.1568 52.1749 51.3777 58.1204 50.283 64.2414C49.2491 70.0179 41.3637 74.0283 36.2894 76.5881C22.6131 83.4867 6.29929 84.7087 -9.02727 85.7214C-10.4571 85.8147 -10.4678 87.8288 -9.02727 87.7338C8.95823 86.5473 26.9957 84.691 42.3724 75.6254C51.9314 69.9906 56.9393 60.347 46.7532 52.8253C37.6422 46.0957 24.0501 53.59 16.3958 58.5341C5.91767 65.304 -5.38647 75.1118 -10.7993 85.863C-11.3888 87.035 -9.45905 88.059 -8.86419 86.8789Z" fill="#1A365B"/>
<path d="M-7.65693 87.4134C-1.15827 78.7777 12.6041 74.9604 22.826 71.169C24.1411 70.6812 23.566 68.7348 22.2312 69.229C11.3033 73.2829 -2.65793 77.1838 -9.59198 86.3975C-10.4018 87.4762 -8.46142 88.4808 -7.65693 87.4134" fill="#1A365B"/>
<path d="M-21.8276 131.399C-11.9354 116.136 12.9105 98.9277 34.5171 103.386C41.7468 104.877 40.7488 112.511 37.8964 116.937C34.6014 122.05 27.8698 125.292 22.2223 127.886C17.123 130.227 11.5793 131.899 5.9891 132.986C-2.54316 134.644 -15.8593 133.744 -23.829 130.211C-25.119 129.637 -26.255 131.373 -24.9596 131.948C-16.8036 135.565 -4.00168 136.153 4.86742 135.189C11.2836 134.49 17.5584 132.085 23.3529 129.623C31.5501 126.139 47.8315 116.144 41.392 105.87C36.1655 97.5287 21.7778 101.293 13.8153 103.476C-2.08274 107.839 -15.3846 117.458 -23.7628 130.383C-24.492 131.507 -22.5551 132.519 -21.8276 131.399" fill="#1A365B"/>
<path d="M9.30753 46.305C20.961 41.2144 28.7443 31.7093 39.0307 24.9249C39.7205 24.4693 39.0504 23.4212 38.3516 23.8833C28.0796 30.6579 20.2622 40.1808 8.62845 45.2618C7.84905 45.6031 8.52992 46.6431 9.30753 46.305" fill="#1A365B"/>
<path d="M9.00264 44.3264C12.8065 32.3532 21.4732 22.5953 31.4945 14.2461C32.1287 13.7165 31.1773 12.8648 30.5412 13.3928C20.3605 21.8789 11.5702 31.8429 7.70722 44.006C7.46712 44.7547 8.76613 45.0734 9.00264 44.3264" fill="#1A365B"/>
<path d="M8.15338 48.171C18.7515 44.9785 26.8233 38.1007 35.8699 32.4997C36.5776 32.0618 35.9057 31.0138 35.1908 31.4581C26.2518 36.9915 18.2767 43.8498 7.79678 47.0053C6.97974 47.2517 7.32918 48.4173 8.15338 48.171" fill="#1A365B"/>
<path d="M-5.06066 83.5978C1.56879 75.5883 10.5006 69.5864 21.079 66.4695C21.8978 66.228 21.5485 65.0624 20.7225 65.3056C9.78571 68.5271 0.629922 74.7109 -6.2217 82.9876C-6.73952 83.6123 -5.5713 84.2144 -5.06066 83.5978Z" fill="#1A365B"/>
<path d="M-4.75959 84.7973C2.88217 78.7874 13.8243 77.8664 22.8887 74.3213C23.6807 74.0106 22.9944 72.9722 22.2097 73.2781C12.9894 76.8844 2.08305 77.815 -5.71102 83.9424C-6.36321 84.456 -5.4082 85.3077 -4.75959 84.7973" fill="#1A365B"/>
<path d="M-5.65188 86.0354C2.63132 84.0873 10.7551 81.6579 18.9505 79.4394C19.7782 79.2156 19.4235 78.05 18.5921 78.2738C10.3967 80.4923 2.27481 82.9233 -6.00839 84.8697C-6.84692 85.0678 -6.4922 86.2318 -5.65188 86.0354Z" fill="#1A365B"/>
<path d="M47.7205 57.0805C43.2573 58.6389 38.4608 59.0752 33.9134 60.3824C33.091 60.6191 33.4421 61.7847 34.2699 61.5481C38.8191 60.2392 43.6156 59.8029 48.077 58.2445C48.8762 57.9659 48.5286 56.7971 47.7205 57.0805" fill="#1A365B"/>
<path d="M46.4252 58.1398C43.7214 61.0989 40.4624 63.5782 37.4594 66.2813C36.8466 66.8319 37.7962 67.6868 38.4107 67.1362C41.4137 64.4331 44.6711 61.9537 47.3766 58.993C47.9213 58.3974 46.9752 57.5377 46.4252 58.1398Z" fill="#1A365B"/>
<path d="M49.0786 57.074C45.0848 55.8069 41.0981 55.0374 36.8929 55.8697C36.0472 56.0356 36.4055 57.2012 37.2494 57.0337C41.2092 56.2497 44.9755 57.0515 48.722 58.2396C49.5408 58.4988 49.8902 57.3332 49.0786 57.074Z" fill="#1A365B"/>
<path d="M48.0305 58.0173C48.181 61.4642 47.1704 64.689 45.1709 67.6255C44.7175 68.2921 45.8822 68.899 46.3337 68.2357C48.4444 65.1317 49.5338 61.6607 49.3743 58.0173C49.3421 57.2414 47.9983 57.2381 48.0305 58.0173Z" fill="#1A365B"/>
<path d="M57.7363 4.80704C55.545 6.77439 53.1638 8.5453 50.4923 9.96527C49.7488 10.3629 50.4243 11.4062 51.1714 11.0086C53.9361 9.53706 56.4176 7.69686 58.6878 5.66028C59.3006 5.10968 58.3509 4.25483 57.7363 4.80704Z" fill="#1A365B"/>
<path d="M57.6073 3.91184C54.9126 3.75407 52.2554 4.01005 49.6198 4.50913C48.7705 4.67012 49.1306 5.83411 49.9763 5.67312C52.5027 5.19657 55.0272 4.96797 57.6073 5.11931C58.4728 5.17082 58.4674 3.96336 57.6073 3.91184Z" fill="#1A365B"/>
<path d="M56.7367 4.87784C57.0789 7.79506 56.0182 10.3146 53.9739 12.5653C53.4328 13.1626 54.377 14.0223 54.9271 13.4186C57.1864 10.9264 58.4603 8.12349 58.0805 4.87784C57.9927 4.1115 56.6471 4.10345 56.7367 4.87784Z" fill="#1A365B"/>
<path d="M-21.1144 131.853C-11.9245 125.17 -0.622237 121.198 10.9685 119.437C11.8232 119.308 11.4594 118.144 10.6119 118.273C-1.22072 120.071 -12.695 124.185 -22.0658 131C-22.7395 131.487 -21.7827 132.337 -21.1144 131.853" fill="#1A365B"/>
<path d="M-20.1722 130.921C-12.1846 132.724 -1.8767 128.9 5.15409 125.704C5.92812 125.353 5.24725 124.312 4.47501 124.661C-2.10963 127.656 -12.3422 131.442 -19.8156 129.755C-20.6559 129.567 -21.0125 130.731 -20.1722 130.921" fill="#1A365B"/>
<path d="M-20.7868 132.386C-10.5971 131.98 -1.29083 133.448 7.97785 128.751C8.73038 128.369 8.05489 127.326 7.29877 127.707C-1.7549 132.297 -10.9035 130.785 -20.7868 131.178C-21.6504 131.212 -21.654 132.42 -20.7868 132.386" fill="#1A365B"/>
<path d="M39.2922 106.593C35.8538 109.059 31.688 110.478 28.0472 112.67C27.3305 113.102 28.0024 114.148 28.7263 113.712C32.4674 111.46 36.7084 109.983 40.2435 107.446C40.9208 106.96 39.9623 106.111 39.2922 106.593" fill="#1A365B"/>
<path d="M38.7476 106.802C31.896 105.677 25.1483 108.687 19.2266 111.452C18.458 111.812 19.137 112.852 19.9057 112.495C25.4601 109.901 31.9444 106.908 38.391 107.968C39.2385 108.106 39.6005 106.942 38.7476 106.802Z" fill="#1A365B"/>
<path d="M38.5933 107.797C35.3108 113.712 31.4067 118.437 24.2487 120.728C23.437 120.987 23.7864 122.155 24.6052 121.894C32.1108 119.49 36.2927 114.641 39.7562 108.407C40.1414 107.713 38.9821 107.1 38.5933 107.797" fill="#1A365B"/>
<path d="M39.2994 105.242C34.9007 103.383 30.1758 102.568 25.3489 103.263C24.4942 103.387 24.858 104.55 25.7055 104.429C30.1454 103.788 34.5799 104.576 38.6203 106.284C39.4015 106.614 40.0842 105.574 39.2994 105.242Z" fill="#1A365B"/>
<path d="M336.947 306.668C340.709 291.91 353.178 279.065 361.539 265.555C370.241 251.504 378.777 237.349 390.275 224.464C391.378 223.228 389.016 222.211 387.921 223.437C375.693 237.143 366.765 252.289 357.514 267.232C349.52 280.144 337.894 292.04 334.289 306.189C333.924 307.626 336.576 308.118 336.947 306.668Z" fill="#1A365B"/>
<path d="M359.55 267.802C356.637 263.119 356.617 257.579 355.841 252.33C355.715 251.475 354.081 251.902 354.206 252.75C355.001 258.136 355.081 263.747 358.072 268.551C358.536 269.299 360.019 268.551 359.55 267.802" fill="#1A365B"/>
<path d="M366.397 257.693C371.968 256.724 377.54 255.754 383.112 254.785C384.183 254.598 383.814 253.309 382.75 253.493C377.179 254.463 371.607 255.432 366.036 256.402C364.964 256.589 365.334 257.878 366.397 257.693Z" fill="#1A365B"/>
<path d="M373.108 245.128C371.991 240.972 371.414 236.728 371.271 232.404C371.244 231.538 369.569 231.597 369.601 232.464C369.747 236.909 370.325 241.275 371.473 245.548C371.697 246.381 373.332 245.961 373.108 245.128" fill="#1A365B"/>
<path d="M379.629 238.147C383.637 237.118 387.637 236.072 391.501 234.637C392.503 234.265 392.155 232.97 391.14 233.346C387.276 234.781 383.276 235.827 379.268 236.856C378.215 237.126 378.576 238.418 379.629 238.147Z" fill="#1A365B"/>
<path d="M388.697 245.507C390.83 244.959 392.942 244.447 395.134 244.289C396.214 244.215 396.302 242.856 395.223 242.935C392.88 243.099 390.615 243.633 388.336 244.216C387.283 244.486 387.644 245.778 388.697 245.507Z" fill="#1A365B"/>
<path d="M393.859 236.8C395.675 236.333 397.494 235.866 399.31 235.4C400.363 235.129 400.002 233.838 398.949 234.108C397.133 234.575 395.314 235.042 393.498 235.508C392.445 235.779 392.806 237.07 393.859 236.8Z" fill="#1A365B"/>
<path d="M396.846 224.498C398.939 223.961 401.125 223.32 403.283 223.281C404.362 223.262 404.445 221.904 403.372 221.926C401.06 221.967 398.722 222.632 396.485 223.207C395.432 223.477 395.793 224.769 396.846 224.498" fill="#1A365B"/>
<path d="M400.316 213.919C402.274 213.416 404.191 212.975 406.207 212.841C407.287 212.772 407.374 211.414 406.296 211.486C404.129 211.627 402.061 212.086 399.955 212.627C398.901 212.898 399.262 214.189 400.316 213.919" fill="#1A365B"/>
<path d="M344.882 252.838C345.347 254.501 345.885 256.097 346.83 257.597C347.298 258.344 348.781 257.594 348.308 256.848C347.431 255.452 346.95 253.964 346.518 252.418C346.285 251.586 344.65 252.006 344.882 252.838" fill="#1A365B"/>
<path d="M354.227 240.288C354.679 241.893 355.237 243.489 356.723 244.609C357.475 245.175 358.707 244.164 357.954 243.595C356.674 242.629 356.25 241.245 355.863 239.868C355.63 239.036 353.995 239.456 354.227 240.288Z" fill="#1A365B"/>
<path d="M360.904 230.73C361.345 232.166 362.219 233.452 362.653 234.895C362.902 235.721 364.538 235.303 364.288 234.475C363.854 233.032 362.981 231.746 362.539 230.31C362.285 229.484 360.649 229.902 360.904 230.73Z" fill="#1A365B"/>
<path d="M374.482 220.784C374.902 222.283 375.343 223.811 376.31 225.113C376.839 225.827 378.323 225.083 377.788 224.364C376.895 223.159 376.506 221.753 376.118 220.364C375.885 219.532 374.25 219.952 374.482 220.784" fill="#1A365B"/>
<path d="M385.031 212.538C385.381 213.799 385.68 215.037 385.551 216.372C385.463 217.252 387.138 217.184 387.222 216.312C387.367 214.858 387.048 213.493 386.666 212.118C386.434 211.286 384.798 211.706 385.031 212.538" fill="#1A365B"/>
<path d="M335.763 306.085C325.984 286.315 337.295 260.199 350.329 241.206C357.6 230.615 368.251 221.891 379.423 213.879C385.942 209.202 392.876 204.922 399.835 200.712C400.333 200.413 407.007 195.938 407.628 196.806C409.599 199.552 409.495 203.435 409.582 206.628C410.173 228.086 399.201 250.45 383.54 268.682C377.293 275.952 370.441 282.91 363.084 289.496C356.182 295.68 346.209 304.556 335.569 304.867C333.77 304.919 333.634 307.182 335.426 307.13C345.41 306.837 354.075 299.946 361.023 294.372C370.711 286.6 379.117 277.594 386.866 268.574C397.483 256.217 406.341 241.325 409.437 226.877C411.671 216.45 415.617 203.247 409.03 194.073C408.685 193.589 407.796 193.371 407.143 193.751C382.001 208.381 357.684 224.013 343.685 246.789C332.445 265.078 324.2 288.943 333.293 307.332C333.937 308.634 336.401 307.375 335.763 306.085" fill="#1A365B"/>
<path d="M96.9671 76.0253C91.1887 76.0253 91.1887 84.075 96.9671 84.075C102.745 84.075 102.745 76.0253 96.9671 76.0253Z" fill="#1A365B"/>
<path d="M114.884 69.5855C109.106 69.5855 109.106 77.6353 114.884 77.6353C120.663 77.6353 120.663 69.5855 114.884 69.5855Z" fill="#1A365B"/>
<path d="M102.342 59.9258C96.564 59.9258 96.564 67.9756 102.342 67.9756C108.121 67.9756 108.121 59.9258 102.342 59.9258Z" fill="#1A365B"/>
<path d="M248.144 138.634C242.367 138.634 242.367 146.684 248.144 146.684C253.921 146.684 253.921 138.634 248.144 138.634Z" fill="#1A365B"/>
</svg>
