<svg width="127" height="110" viewBox="0 0 127 110" fill="none" xmlns="http://www.w3.org/2000/svg">
<path d="M46.9428 110C45.5724 110 44.202 109.974 42.8385 109.926C33.0265 109.583 22.8993 108.064 14.7318 103.001C6.5643 97.9369 0.842895 88.6154 2.88477 79.6862C3.78923 75.733 6.07778 72.1919 8.33207 68.7349C12.9092 61.7095 17.5 54.6681 22.8787 48.1524C28.4288 41.4283 35.0478 35.1343 43.4277 31.8035C48.135 29.9348 52.9793 29.0627 57.7209 29.0627C74.2752 29.0627 89.5208 39.71 92.6522 55.7385C94.4337 64.8384 93.166 74.209 91.3297 83.2986C90.5143 87.3163 89.555 91.3976 87.3007 94.9075C84.9368 98.5932 81.2642 101.43 77.2695 103.58C68.1839 108.468 57.4948 110 46.9428 110Z" fill="#EDF3E2"/>
<path d="M102.868 33.539L102.875 33.5383C103.458 31.8882 104.273 30.8025 105.294 30.3094C106.527 34.3907 105.568 38.9812 102.772 42.3298L102.204 42.9918C102.087 43.1338 101.964 43.2766 101.841 43.4212C101.436 40.3274 101.806 36.5385 102.868 33.539V33.539ZM101.073 46.557L101.183 46.5768C101.567 46.6258 101.95 46.4532 102.149 46.1391C102.594 45.4325 103.143 44.7948 103.725 44.1188L104.307 43.4365C107.514 39.5928 108.583 34.3041 107.103 29.6284C107.034 29.427 106.925 29.0913 106.616 28.8173C106.089 28.3497 105.287 28.2942 104.472 28.6714C102.951 29.378 101.793 30.8248 101.025 32.9725C99.5863 37.0347 99.3191 42.2362 100.374 45.9148C100.463 46.2328 100.731 46.4768 101.073 46.557" fill="#1A365B" fill-opacity="0.75"/>
<path d="M111.248 37.8935C112.571 35.1686 114.708 33.1623 117.251 32.3054C117.251 34.6589 116.202 37.152 114.188 39.4532C110.878 43.2326 109.878 43.0388 109.775 43.0185C109.768 43.0108 109.151 42.2342 111.248 37.8935V37.8935ZM107.98 43.7053C108.206 44.2003 108.61 44.5514 109.145 44.7196L109.302 44.7642C111.296 45.2382 113.653 42.9286 115.791 40.4815C118.059 37.8923 119.265 34.8998 119.183 32.0544C119.155 31.0574 118.648 30.6483 118.23 30.4808C117.71 30.2794 117.209 30.4158 116.99 30.475C113.838 31.3702 111.104 33.8046 109.48 37.1526C107.898 40.4267 107.418 42.5088 107.98 43.7053" fill="#1A365B" fill-opacity="0.75"/>
<path d="M124.911 45.3579C124.431 46.2149 123.404 46.8966 121.766 47.4413C120.06 48.0096 113.413 49.0372 111.947 47.9159C111.838 47.8331 111.748 47.7414 111.796 47.4744C112.009 46.2231 119.005 44.7157 123.294 44.4341V44.4328C123.732 44.4048 124.144 44.4367 124.466 44.5125C124.801 44.5921 125.028 44.7202 125.055 44.8731C125.062 44.9241 125.069 45.0719 124.911 45.3579V45.3579ZM100.881 56.1493C100.566 57.305 100.203 58.4729 99.7918 59.6171C99.7301 59.793 99.6685 59.921 99.6137 60.0089L99.5931 59.9643C99.3533 59.4547 99.3602 58.8029 99.367 58.1715V57.6306C99.3328 50.781 100.422 50.2057 100.648 50.1599C100.765 50.135 100.833 50.1356 100.881 50.1458L100.964 50.1943C101.717 50.911 101.34 54.4572 100.881 56.1493V56.1493ZM27.8875 69.7198L27.867 69.7211L27.8396 69.6179L27.8875 69.7198ZM30.2652 61.2844C30.5872 60.9672 30.9093 60.7856 31.1422 60.7971C31.5122 60.8219 31.9164 61.3501 32.1974 62.1885C33.4239 65.8564 33.5541 69.774 32.5331 72.6658C32.3756 73.1252 32.2385 73.387 32.1426 73.5323C31.8822 73.287 31.519 72.7888 31.2861 72.4639C31.1902 72.3371 31.1011 72.2109 31.0052 72.0854C30.8476 71.7057 30.6078 71.159 30.3542 70.5812C29.9568 69.6879 29.3675 68.3379 29.2853 68.0423C28.8262 66.345 28.3329 63.2104 30.2652 61.2844V61.2844ZM25.1741 69.3127C23.4337 68.5991 21.4125 67.7021 19.6652 66.4623C19.0417 66.0188 18.2879 65.4148 17.959 64.6637C17.7261 64.1406 17.733 63.3806 18.2058 63.004C18.5552 62.7192 19.0896 62.6988 19.6652 62.8352C20.1517 62.9505 20.6587 63.1779 21.1041 63.4538C23.3995 64.8707 25.0646 67.0344 25.8114 69.5217C25.5716 69.4554 25.3591 69.3866 25.1741 69.3127V69.3127ZM37.6241 72.5333C37.7817 71.9338 37.9325 71.3476 38.0421 70.7965L38.049 70.7952C38.2134 69.9657 38.4875 69.6956 38.5697 69.6911L38.5834 69.693C38.693 69.7192 38.9671 70.0396 39.063 70.55C39.3029 71.777 38.789 73.9579 37.6653 75.1276C37.446 75.3582 37.2199 75.5315 36.9801 75.6494C37.076 74.6676 37.3569 73.5871 37.6241 72.5333V72.5333ZM27.4216 36.3314C27.6683 34.7558 28.0657 33.5758 28.6618 32.6163C29.3333 31.5371 30.3131 30.7356 31.4916 30.3693C31.5122 30.4661 31.5259 30.6037 31.5122 30.7643C31.2998 33.2019 29.8541 36.1237 28.0931 37.7114C27.7642 38.0089 27.5312 38.1643 27.3805 38.2459C27.312 37.9566 27.2572 37.3526 27.4216 36.3314V36.3314ZM19.1444 26.5466C19.2541 25.8598 19.4322 25.4526 19.6926 25.3029C20.1448 25.0449 21.0013 25.5412 21.481 26.1471C22.5773 27.5188 23.0775 29.4524 22.8993 31.5918C22.7349 33.5134 22.0771 35.3285 21.4604 35.5547C21.3851 35.5795 21.2822 35.5611 21.1657 35.5203C21.0698 35.454 20.9739 35.391 20.878 35.3254C20.8164 35.2846 20.7478 35.268 20.6861 35.2419L20.5148 35.1144C18.8635 33.7077 18.7196 29.1702 19.1444 26.5466V26.5466ZM58.7487 17.7927C58.2279 17.1039 57.7757 16.5032 57.4262 16.0929C57.0768 15.6794 56.7959 15.3353 56.6794 14.9792C56.5904 14.7224 56.6177 14.4402 56.7411 14.3223C56.8849 14.1783 57.2549 14.1624 57.6866 14.2643C57.8099 14.2943 57.9402 14.3332 58.0704 14.3829C59.8108 15.0435 61.3182 16.4904 62.3186 18.4571C63.2025 20.2092 63.8739 22.3486 63.8191 23.1285C62.4213 22.6672 60.1259 19.6237 58.7487 17.7927V17.7927ZM64.47 6.81779C64.3604 6.0832 64.2851 5.32055 64.5454 4.72167C64.751 4.25785 65.258 3.90875 65.6349 3.97692L65.6691 3.98457C66.0871 4.08396 66.464 4.60125 66.8066 5.56329C68.0536 9.03109 69.5268 14.581 69.1362 16.6134C68.9992 16.7421 68.8896 16.795 68.8074 16.8115C68.6429 16.8453 68.1427 16.6274 67.3616 15.5519C66.0528 13.7508 65.1073 10.8934 64.47 6.81779V6.81779ZM73.1241 9.98356L73.2337 9.34265C73.8435 5.96214 75.1043 3.4908 76.9954 1.99677L77.1256 1.89803C77.1461 1.99806 77.1599 2.13817 77.153 2.32484C77.0639 4.95803 76.8584 7.76263 75.9334 10.4251C75.5497 11.5171 74.6109 12.7136 73.1172 14.0025C72.7952 14.1681 72.48 14.3408 72.1785 14.5205C72.5485 13.2437 72.85 11.7114 73.1241 9.98356V9.98356ZM88.5683 12.9334C88.9726 12.9755 89.5345 13.0538 89.7263 13.2851C90.0004 13.6126 89.5687 14.3771 89.0137 14.8588C87.6228 16.0718 85.7522 16.7752 83.9364 17.455C82.1823 18.1157 80.3666 18.7993 78.5097 19.0701C76.7899 19.3173 73.9121 18.2361 71.7742 17.348C72.6993 16.7166 73.5215 16.0992 74.2341 15.4946C78.4411 13.387 84.1831 12.5104 88.5683 12.9334ZM75.303 23.0928C76.2006 23.3069 77.064 23.5343 77.7834 23.7254C79.051 24.0612 80.024 24.1695 80.5105 24.5702C81.0175 24.9844 80.8873 25.8923 80.442 26.3962C79.8047 27.1155 78.6741 27.3927 77.8313 27.4978C75.625 27.773 73.3365 27.2748 71.5413 26.1325C70.1914 25.2705 68.6155 23.6031 68.6977 22.8864C68.7045 22.8411 68.7182 22.7041 69.1294 22.5506C70.3901 22.0785 72.987 22.5411 75.303 23.0928ZM68.4579 49.0494C68.2044 46.0549 69.4582 42.9994 70.5683 40.3031L71.1439 38.897C71.1164 38.9843 71.089 39.0722 71.0616 39.1595C70.5614 40.786 70.0407 42.4693 69.7187 44.1659C68.9033 48.4537 69.7392 52.2037 71.9935 54.5744C71.8976 54.5534 71.8016 54.5247 71.692 54.4807C69.8968 53.7742 68.636 51.1646 68.4579 49.0494V49.0494ZM73.6174 50.0286C73.5763 50.3242 73.5352 50.6664 73.4941 51.0321C73.3844 51.9743 73.1926 53.6047 72.7198 54.2909V54.1679C72.6581 48.404 72.6239 42.4782 72.8774 36.6116C74.0491 40.9587 74.3163 45.5312 73.6174 50.0286V50.0286ZM72.3772 36.3969C72.1168 42.3367 72.1717 48.339 72.2333 54.173V54.1794C70.1641 51.9068 69.4172 48.3282 70.1983 44.2455C70.5135 42.5706 71.0273 40.8995 71.5275 39.2831C71.8222 38.3351 72.1168 37.3724 72.3772 36.3969V36.3969ZM123.157 42.633C122.992 42.6432 110.796 43.5549 109.912 47.0673C99.7576 46.8373 89.3495 48.5365 79.791 51.9871C78.0232 52.6261 76.4267 53.276 74.9467 53.9513C75.2071 53.0784 75.3236 52.0998 75.4195 51.2225C75.4606 50.881 75.5017 50.5625 75.5428 50.2873C76.4747 44.2526 75.7826 38.0859 73.5283 32.4494C73.3913 32.0983 73.035 31.8684 72.6238 31.8614C72.2196 31.8601 71.8564 32.0914 71.7126 32.4424L68.7525 39.6603C67.574 42.5336 66.2379 45.7905 66.5188 49.1908C66.7038 51.3296 67.9988 54.8961 70.815 56.0901C70.4929 56.2831 70.1709 56.4781 69.8557 56.6775C61.5032 61.9502 55.4872 69.2675 52.5203 77.6066C52.4312 77.0313 52.3627 76.4681 52.2599 75.882C52.027 74.4625 51.7597 73.0417 51.4856 71.6203C50.5126 66.4578 49.5054 61.1194 49.9851 55.8964C50.6977 48.1682 54.6718 40.9587 58.0566 35.5419C60.7152 31.2879 63.6341 27.1544 66.7723 23.1833C67.0258 25.3756 70.4039 27.5972 70.4381 27.6214C71.4728 28.2789 72.6376 28.7605 73.8572 29.0517C75.2276 29.3772 76.6734 29.4639 78.0918 29.2862C79.8116 29.0708 81.1066 28.4846 81.9425 27.5436C82.984 26.3663 83.1759 24.3466 81.7986 23.2164C81.2162 22.7392 80.5379 22.5481 79.8253 22.3792V22.3786C79.4073 22.2792 78.8934 22.1422 78.3179 21.9893C74.5219 20.9808 70.9452 20.143 68.7251 20.7763C69.2801 20.099 69.8488 19.4256 70.4244 18.7591C71.9318 19.3988 73.7887 20.1608 75.5839 20.5864C76.735 20.861 77.8519 20.9929 78.8112 20.854C80.8873 20.5507 82.8127 19.8282 84.6627 19.1287C86.547 18.4208 88.6848 17.6194 90.343 16.177C91.5284 15.1474 92.3232 13.4584 91.2611 12.1829C90.6239 11.4101 89.5893 11.2177 88.7671 11.138C85.2863 10.8029 80.9764 11.2068 77.0776 12.4071C77.3859 11.9261 77.619 11.4502 77.7834 10.9807C78.7838 8.09519 79.0099 5.01286 79.0921 2.37904C79.1469 0.593213 78.126 0.15486 77.6806 0.0490997C76.7351 -0.174526 75.9813 0.426892 75.7347 0.623122C73.4598 2.42487 72.0141 5.17976 71.3152 9.04575L71.2055 9.71664C71.0411 10.7265 70.8835 11.5942 70.719 12.339C70.0818 9.05342 68.869 5.60409 68.6497 4.99119C68.2797 3.96672 67.6288 2.58612 66.1625 2.23762L65.9981 2.20383C64.5249 1.93879 63.223 2.95558 62.7502 4.04505C62.3185 5.03958 62.3939 6.08893 62.5515 7.07518C62.9832 9.85235 63.7849 13.8566 65.7514 16.563C66.0803 17.0211 66.9505 18.2042 68.1427 18.533C67.2725 19.5632 66.416 20.6055 65.5732 21.6593C65.2306 20.0876 64.4358 18.3999 64.0726 17.6876V17.6863C62.8667 15.3105 60.9962 13.5431 58.8035 12.7111C57.4057 12.1893 56.1107 12.3192 55.3364 13.0755C54.7129 13.6782 54.521 14.6141 54.8225 15.5214C55.0623 16.2228 55.5282 16.7714 55.9051 17.2129C56.2408 17.6035 56.6657 18.1749 57.1591 18.828C59.338 21.7211 61.2976 24.1682 63.1271 24.8085C61.2565 27.2952 59.475 29.8411 57.7826 32.4322C57.5564 31.2115 56.9329 29.6697 55.8572 27.731C54.1168 24.5932 51.0882 22.0575 47.5526 20.7756C47.1072 20.6221 46.6413 20.7667 46.3878 21.1222C45.6615 22.1556 46.148 23.4241 46.333 23.9007C47.7788 27.6602 51.191 32.8228 56.0764 35.1151C52.6641 40.6395 48.7723 47.8847 48.0528 55.7429C47.9843 56.466 47.95 57.1891 47.9295 57.9116C43.0852 50.2121 35.7535 45.1362 27.9286 39.9948C28.6138 39.7482 29.1826 39.2404 29.4429 39.0098C31.5465 37.1169 33.1909 33.7873 33.4444 30.9127C33.5609 29.6582 32.9648 28.6949 31.9507 28.5414C31.5739 28.4777 31.2381 28.5465 30.964 28.6223C29.3607 29.0702 27.9423 30.1673 26.9831 31.7104C26.2568 32.8744 25.784 34.2588 25.4962 36.0701V36.0714C25.3523 36.9978 25.3386 37.7514 25.4346 38.3586C24.6192 37.8234 23.7969 37.2813 22.9747 36.7347C24.3999 35.4643 24.7562 32.6718 24.8315 31.7333C25.0508 29.1594 24.4136 26.7938 23.0432 25.0704C22.0017 23.7726 20.1654 22.9074 18.6717 23.7687C17.6439 24.3625 17.3492 25.4852 17.2259 26.2784V26.279C16.8901 28.3522 16.5887 34.2212 19.2061 36.446C19.5556 36.7397 19.8776 36.9417 20.1859 37.0869C21.9058 38.2548 23.6325 39.3869 25.3318 40.5019C34.6025 46.5755 43.3592 52.3152 48.0733 62.1133C48.3543 65.4263 48.971 68.7132 49.5739 71.9325C49.8412 73.3431 50.1084 74.7523 50.3482 76.161C51.6432 83.8643 51.8077 90.5661 50.8758 96.5256C49.7247 92.3659 47.0524 88.117 42.859 83.8401C41.0022 81.946 38.9877 80.1461 37.0417 78.4068C36.7608 78.1533 36.4799 77.8984 36.1921 77.6436C37.2816 77.6397 38.2819 77.1925 39.111 76.3305C40.6801 74.6982 41.3037 71.8917 40.9748 70.2269C40.7418 69.0457 39.8442 67.8142 38.4533 67.8888C37.7749 67.9276 36.5758 68.3124 36.1372 70.4582C36.0276 70.9832 35.8837 71.5407 35.7398 72.1122C35.3561 73.6068 34.9587 75.148 35.0204 76.5853C34.4517 76.0686 33.8898 75.5462 33.3279 75.0168C33.8418 74.574 34.1571 73.8674 34.3832 73.2265C35.5206 69.9912 35.3973 65.664 34.0543 61.6514C33.3074 59.426 31.9645 59.031 31.245 58.994C30.4159 58.9526 29.5868 59.3177 28.8468 60.0529C26.5514 62.3408 26.7638 65.6518 27.2366 67.7938C26.2294 65.4167 24.4753 63.3659 22.1799 61.9496C20.6382 60.9971 18.4524 60.4148 16.9313 61.6406C15.8898 62.4803 15.5746 64.003 16.157 65.3441C16.664 66.4999 17.6713 67.316 18.4867 67.8964C20.3984 69.2528 22.543 70.2091 24.3931 70.9647C25.0782 71.2444 25.921 71.4196 26.805 71.6362L26.8735 71.6528C27.1544 71.7229 27.4284 71.7987 27.6888 71.879C30.1213 74.7154 32.9511 77.2517 35.6988 79.7085C37.6242 81.4274 39.6112 83.2056 41.427 85.0564C46.9496 90.6986 49.6973 96.216 49.5877 101.456C49.574 101.883 49.8891 102.246 50.3139 102.348C50.3825 102.365 50.4578 102.374 50.5332 102.376C50.821 102.382 51.0745 102.268 51.2527 102.09C51.5199 101.983 51.7391 101.779 51.8214 101.495C53.3425 95.8924 53.7673 89.6283 53.1232 82.5028C55.2062 72.7537 61.5374 64.1145 70.9451 58.1715C73.5968 56.4966 76.6323 55.0662 80.4968 53.671C86.3415 51.5583 92.5219 50.1191 98.7572 49.3953C97.5924 51.0015 97.4073 54.2437 97.4279 57.6395V58.1556C97.4142 58.8978 97.4074 59.8216 97.8116 60.6836C98.1131 61.3246 98.5996 61.7515 99.182 61.8904C99.2779 61.9127 99.367 61.9273 99.4629 61.9343C99.9152 61.9706 101.032 61.8738 101.642 60.1867C102.06 58.9979 102.437 57.7873 102.766 56.5889V56.5883C102.779 56.5322 104.232 51.0155 102.45 49.0526C104.986 48.8735 107.521 48.8124 110.042 48.8754C110.118 48.8773 110.186 48.8544 110.255 48.841C110.378 49.0105 110.529 49.1685 110.714 49.308C111.104 49.6087 111.618 49.8215 112.221 49.9649C115.64 50.7772 121.732 49.3705 122.424 49.1411C124.541 48.4358 125.918 47.4712 126.631 46.1913C126.953 45.6217 127.063 45.0744 126.967 44.5641C126.72 43.2319 125.254 42.4916 123.157 42.633" fill="#1A365B" fill-opacity="0.75"/>
<path d="M118.895 64.4885L118.875 64.5057C117.566 63.5131 116.518 62.2121 115.503 60.9443C115.12 60.4664 114.736 59.9886 114.339 59.526C113.736 58.8163 113.078 58.1276 112.447 57.4612C111.776 56.754 111.084 56.0232 110.447 55.2708C109.337 53.9589 108.371 52.5197 107.425 51.1206C107.679 51.0187 108.049 51.0442 108.46 51.1416C109.268 51.3353 110.262 51.8081 110.919 52.1183C111.276 52.2878 111.598 52.4394 111.865 52.5503C113.235 53.1122 114.345 53.6315 115.284 54.3406C117.874 56.2953 118.868 59.5859 119.245 62.0006C119.443 63.2665 119.334 64.033 118.895 64.4885V64.4885ZM116.613 64.8389C115.25 64.4617 114.133 63.4621 113.222 62.5338C111.365 60.6537 109.81 58.543 108.549 56.1786C107.014 53.2989 106.863 52.0253 107.089 51.4698C108.014 52.8447 108.974 54.2533 110.063 55.5492C110.707 56.3124 111.406 57.0477 112.084 57.7593C112.708 58.4219 113.359 59.1062 113.962 59.8063C114.352 60.2657 114.736 60.7391 115.113 61.2131C116.12 62.472 117.162 63.7596 118.463 64.7745C117.915 65.0122 117.175 64.9854 116.613 64.8389V64.8389ZM112.646 50.8983C112.406 50.7995 112.119 50.6625 111.803 50.5115C110.015 49.6636 107.315 48.3778 105.746 50.0834C104.095 51.8807 105.931 55.3236 106.856 57.0585C108.151 59.4961 109.809 61.7489 111.79 63.7545C112.879 64.8638 114.243 66.0666 116.058 66.5687C116.127 66.5871 116.189 66.6044 116.257 66.6209C117.84 66.9975 119.43 66.6413 120.341 65.6946C121.444 64.5535 121.362 62.9824 121.163 61.7406C120.546 57.7657 118.977 54.8038 116.504 52.9389C115.401 52.1024 114.167 51.5182 112.646 50.8983" fill="#1A365B" fill-opacity="0.75"/>
<path d="M5.55678 42.9644C6.63254 41.113 9.08554 40.1732 11.1069 39.5616C12.6006 39.1086 17.164 37.7223 19.2196 38.7283C19.6513 38.9405 19.9185 39.2424 20.0624 39.6782C20.5214 41.1142 14.8891 42.7134 13.0391 43.2397C12.4636 43.4028 11.9702 43.5429 11.6208 43.6589C10.2093 44.1291 8.56479 44.6432 6.92717 44.798C6.19402 44.8688 5.70072 44.7961 5.4609 44.5833C5.1046 44.2603 5.24845 43.5085 5.55678 42.9644V42.9644ZM12.2786 45.3587C12.6006 45.2504 13.0665 45.1198 13.6078 44.9656C17.0955 43.9749 22.9333 42.3165 21.9192 39.1615C21.6314 38.253 21.0217 37.57 20.1241 37.1297C17.6574 35.9288 13.6901 36.882 10.5039 37.8446C8.13998 38.5607 5.24849 39.6922 3.85069 42.1088C3.1792 43.2664 3.00101 44.8822 4.11788 45.8831C4.49473 46.2214 4.94011 46.4125 5.38549 46.5176C6.11179 46.6909 6.81757 46.6234 7.12591 46.5941C8.97593 46.4176 10.7574 45.8639 12.2786 45.3587" fill="#1A365B" fill-opacity="0.75"/>
<path d="M1.93923 29.9654C1.95978 29.7488 2.23384 29.4971 2.56273 29.3894C3.02866 29.2416 3.60428 29.2843 4.15928 29.3525C6.04357 29.5863 12.3473 31.3816 13.7451 33.128C13.8479 33.2554 13.9644 33.4382 13.8411 33.7096C13.012 34.1321 9.79842 33.7224 3.39185 31.1402C2.46684 30.77 1.91182 30.3183 1.93923 29.9654V29.9654ZM2.68612 32.8234C5.46115 33.9422 7.80448 34.729 9.70247 35.1814C12.1006 35.7522 13.8 35.7911 14.7798 35.2922C15.3759 34.9845 15.7527 34.4926 15.8555 33.867C15.9583 33.249 15.7733 32.638 15.3005 32.0481C13.2655 29.513 5.78314 27.7304 4.41275 27.5628V27.5621C3.62478 27.4653 2.77519 27.4131 1.9324 27.6832C0.849796 28.0304 0.075486 28.8957 0.00696655 29.8354C-0.0615529 30.6796 0.342752 31.8786 2.68612 32.8234Z" fill="#1A365B" fill-opacity="0.75"/>
<path d="M23.9542 44.1685C24.7902 43.9009 25.2492 43.8436 25.4822 43.8397C25.2629 44.7075 23.4952 46.9565 22.1111 48.0606C21.6589 48.4174 21.1313 48.8041 20.5557 48.9538C20.0966 49.073 19.6169 49.0061 19.3634 48.7806C19.0208 48.4767 19.0551 47.8447 19.2812 47.4121C19.5964 46.8004 20.2473 46.3054 20.8846 45.8505C21.8164 45.1892 22.8305 44.5259 23.9542 44.1685V44.1685ZM17.5339 46.6233C16.8967 47.8383 17.0955 49.2603 18.0205 50.0822C18.3631 50.3924 18.8016 50.6084 19.2812 50.7231C19.843 50.8569 20.4666 50.8512 21.0764 50.6919C22.022 50.4466 22.7688 49.9152 23.3718 49.4291C23.4266 49.3871 28.5245 44.9445 27.2226 42.828C26.3935 41.4812 24.1598 42.1915 23.3238 42.4604C21.9397 42.9019 20.7681 43.6626 19.706 44.4189C18.9181 44.9789 18.041 45.6568 17.5339 46.6233" fill="#1A365B" fill-opacity="0.75"/>
<path d="M13.3409 79.8849C13.7314 77.4836 16.8491 76.2534 18.1715 75.8373C19.7474 75.3391 24.9549 74.7326 27.4216 75.3187C27.9287 75.4391 28.3123 75.6099 28.5316 75.8418C28.6138 75.924 28.8194 76.1438 28.4357 76.8541C27.3188 78.9464 22.3648 80.508 15.184 81.0298C14.2384 81.0954 13.6561 80.9922 13.4436 80.7195C13.3203 80.5545 13.2792 80.2512 13.3409 79.8849V79.8849ZM13.4368 82.7277C14.0877 82.8819 14.7729 82.8704 15.3348 82.8296C20.0283 82.4888 28.1958 81.3624 30.176 77.6576C30.9709 76.175 30.5118 75.2053 29.9979 74.6536C27.6546 72.1605 18.9115 73.6947 17.5411 74.1267C14.0466 75.2333 11.8129 77.2326 11.4223 79.6129C11.2853 80.4647 11.436 81.2101 11.8677 81.7695C12.2788 82.3027 12.8406 82.5862 13.4368 82.7277" fill="#1A365B" fill-opacity="0.75"/>
<path d="M31.567 81.9466C31.7314 81.9402 31.9027 81.96 32.074 82.0014C32.3823 82.0747 32.7044 82.218 32.999 82.4123C32.074 83.7968 30.1623 85.0544 29.484 85.503C28.3191 86.2707 27.3599 86.6421 26.3663 86.6453L26.4074 86.5332C27.1748 84.7926 28.5521 83.317 30.2994 82.3779C30.8338 82.0931 31.2244 81.96 31.567 81.9466V81.9466ZM24.6123 85.8534C24.0984 87.0231 24.5369 87.6825 24.8452 87.9705C25.0987 88.2088 25.4071 88.3305 25.6606 88.3923C25.8936 88.4477 26.0923 88.4553 26.195 88.4604C28.0039 88.5394 29.5799 87.6513 30.6077 86.976C32.1425 85.9655 34.2803 84.4046 35.1094 82.5429C35.2533 82.2161 35.1779 81.8409 34.9175 81.5828C34.1844 80.8501 32.8894 80.0882 31.4916 80.1423C30.6214 80.1761 29.8814 80.5201 29.3264 80.8157C27.2091 81.953 25.5373 83.7426 24.6123 85.8534" fill="#1A365B" fill-opacity="0.75"/>
<path d="M75.1112 66.6159L74.7207 66.2877C73.5969 65.3518 71.0686 63.2513 70.7465 61.656C71.0891 62.0459 71.4797 62.4052 71.8771 62.7473C76.6598 66.9057 82.0248 70.4124 87.8352 73.1998C82.7853 72.2862 78.27 69.2828 75.1112 66.6159V66.6159ZM74.5562 60.0517C76.7831 60.5818 79.6129 61.9732 82.0248 63.5221V63.5208C85.8482 65.9794 88.8631 69.4848 90.6034 73.4833C90.4047 73.4801 90.1992 73.4629 89.9936 73.4521C89.7264 73.0959 89.4592 72.7398 89.1988 72.3836C88.0751 70.8418 87.013 69.386 85.5056 68.1443C83.7652 66.7044 81.737 65.5939 79.7774 64.5204C78.3659 63.7469 76.6255 62.941 74.9399 62.1612C73.6655 61.5719 72.3567 60.9672 71.1919 60.376C71.2467 60.3276 71.2878 60.2811 71.3563 60.2314C72.0278 59.7261 73.1789 59.7229 74.5562 60.0517V60.0517ZM70.8836 60.7315C72.0758 61.3399 73.4188 61.9605 74.7207 62.5657C76.3994 63.3417 78.1329 64.1439 79.5307 64.909C81.4698 65.9717 83.4775 67.0714 85.1836 68.482C86.643 69.6861 87.6914 71.1196 88.8014 72.6378C88.9864 72.8959 89.1782 73.1558 89.3701 73.4145L89.3633 73.4132C83.0869 70.5539 77.3175 66.8567 72.206 62.4167C71.6784 61.9611 71.1645 61.4757 70.7876 60.9322C70.8082 60.8679 70.8425 60.8016 70.8836 60.7315V60.7315ZM92.0629 75.2487C92.3575 75.2277 92.6316 75.0792 92.8029 74.8461C92.9673 74.6135 93.0085 74.3217 92.9057 74.0567C91.131 69.2153 87.6571 64.9473 83.128 62.0369V62.0357C80.9491 60.6359 73.5626 56.2628 70.1367 58.824C69.2665 59.4745 68.7937 60.3129 68.7663 61.2469C68.7046 63.5157 71.1371 65.7335 73.4256 67.6346L73.8094 67.9525C77.9685 71.4707 82.2235 73.7617 86.3484 74.7429C88.2875 75.2041 90.1992 75.3768 92.0629 75.2487" fill="#1A365B" fill-opacity="0.75"/>
<path d="M40.2348 46.6928C40.6322 46.7871 40.9816 46.7386 41.2283 46.6679C43.7087 45.9626 44.9763 40.1382 44.8872 38.8537C44.7227 36.5053 43.9485 34.2818 43.2085 32.1309C43.092 31.7945 42.7699 31.5429 42.3862 31.511C42.0094 31.4709 41.6393 31.6422 41.4475 31.9474C40.2416 33.832 36.2263 41.622 38.5354 45.2898C39.0973 46.192 39.7072 46.5673 40.2348 46.6928" fill="#1A365B" fill-opacity="0.75"/>
<path d="M28.6958 12.504C28.1476 12.6519 27.6337 12.9214 27.0719 13.3559C25.9002 14.2638 25.3178 15.3978 25.4822 16.4675C25.5576 16.9715 25.7974 17.4703 26.2086 17.994C26.8869 18.8407 27.7776 19.4244 28.7163 19.6473C28.8876 19.6875 29.0521 19.7161 29.2302 19.7327C30.4978 19.8525 31.8614 19.2874 32.7864 18.2546C33.4648 17.485 33.7594 16.6198 33.6086 15.8208C33.5196 15.3653 33.2934 14.9843 33.1358 14.7359C32.2177 13.3259 30.5732 11.9988 28.6958 12.504" fill="#1A365B" fill-opacity="0.75"/>
<path d="M39.3783 12.7666C39.392 12.8513 39.4125 13.0265 39.3988 13.08C39.3851 13.1227 39.3097 13.217 39.1727 13.3591C38.6657 13.8853 38.2545 14.1421 37.9394 14.1211C37.6516 14.0988 37.3569 13.8395 37.1856 13.4814C36.939 12.9628 36.9801 12.3263 37.2884 11.895C37.5625 11.5165 37.9393 11.3267 38.3368 11.3758C38.7273 11.4216 39.0973 11.7293 39.2618 12.1893C39.3234 12.348 39.3509 12.5583 39.3783 12.7666V12.7666ZM41.2831 13.528C41.3859 13.1419 41.3379 12.7774 41.3036 12.5404C41.2694 12.2728 41.2283 11.9402 41.0981 11.607C40.7007 10.5036 39.7483 9.72821 38.5903 9.58614C37.4529 9.44534 36.3634 9.93272 35.6713 10.8897V10.8903C34.9861 11.846 34.8834 13.1208 35.411 14.216C35.8152 15.0602 36.5415 15.6603 37.3706 15.8572C37.5145 15.8903 37.6516 15.912 37.8023 15.9222C39.0699 16.007 40.0154 15.1876 40.6253 14.5613C40.8788 14.2969 41.1598 13.9765 41.2831 13.528Z" fill="#1A365B" fill-opacity="0.75"/>
<path d="M31.2109 7.06119C31.2863 6.7764 31.4302 6.54577 31.6083 6.44255C31.7385 6.36483 31.8481 6.34184 31.9715 6.37051L32.1085 6.4196C32.4511 6.59034 32.7526 7.05225 32.7595 7.4307C32.7732 7.65178 32.6772 7.80787 32.6361 7.82889C32.5676 7.85502 32.3621 7.82122 32.0126 7.71864C31.3069 7.51158 31.2041 7.36759 31.1904 7.32872C31.1904 7.32554 31.163 7.25551 31.2109 7.06119V7.06119ZM31.437 9.4427C31.5467 9.47392 31.67 9.51024 31.8071 9.54337C32.2387 9.64595 32.8006 9.71666 33.3693 9.50131C34.1984 9.18785 34.7328 8.3335 34.7054 7.37719C34.6712 6.35017 33.9791 5.30017 33.013 4.82489C32.2182 4.43052 31.3274 4.46748 30.56 4.91983C29.957 5.28044 29.5185 5.89271 29.3267 6.64769C29.2102 7.11405 29.217 7.52181 29.3472 7.89516C29.7172 8.94129 30.9231 9.29171 31.437 9.4427" fill="#1A365B" fill-opacity="0.75"/>
<path d="M67.0602 75.5239C66.56 75.7361 66.1146 76.091 65.6966 76.6108C64.8949 77.6073 64.5524 78.7675 64.7648 79.7951C65.0046 80.9649 65.9776 82.018 67.3 82.5417C67.5124 82.6239 67.7179 82.6895 67.9235 82.7379C68.6909 82.9208 69.4309 82.8686 70.0476 82.5793C70.4998 82.3697 70.8288 82.0607 71.0343 81.8492C72.2266 80.6265 73.1173 78.777 72.0621 77.2543C71.7538 76.8109 71.3289 76.4292 70.7191 76.0514C69.4446 75.2665 68.1154 75.0754 67.0602 75.5239Z" fill="#1A365B" fill-opacity="0.75"/>
<path d="M90.0346 39.6042C89.8701 39.773 89.7399 39.8775 89.6235 39.9323C89.3631 40.0527 88.952 40.0253 88.5066 39.8469C87.7803 39.5596 87.2321 39.0014 87.1156 38.4223C87.006 37.8916 87.2184 37.2494 87.6912 36.6582C87.9036 36.3931 88.1092 36.216 88.3079 36.1326C88.534 36.0383 88.8149 36.0319 89.1369 36.1084C89.4316 36.1784 89.7605 36.3179 90.0826 36.5206C90.4663 36.7556 90.7129 36.9703 90.8705 37.1984C91.3365 37.8642 90.7129 38.9097 90.0346 39.6042V39.6042ZM91.1651 35.0176C89.8907 34.2314 88.5546 34.0403 87.4994 34.4907C86.9992 34.706 86.5538 35.0609 86.1358 35.5757C85.3341 36.5715 84.9984 37.7323 85.2108 38.7619C85.4506 39.9316 86.4236 40.9842 87.746 41.5079C87.9516 41.5901 88.1571 41.6557 88.3627 41.7041C89.1301 41.8869 89.8701 41.8347 90.4937 41.5455C90.939 41.3358 91.2679 41.0269 91.4735 40.8153C92.6657 39.5927 93.5633 37.7432 92.5081 36.2199L92.5013 36.2185C92.1929 35.7764 91.7681 35.3954 91.1651 35.0176" fill="#1A365B" fill-opacity="0.75"/>
<path d="M73.4803 85.0985C73.9257 84.7436 74.5629 84.5958 75.0837 84.7188L75.1454 84.7366C75.6181 84.8723 75.9196 85.1571 75.9812 85.5215C76.0498 85.9064 75.8374 86.3027 75.4194 86.5766C75.2413 86.6913 75.0425 86.7677 74.8507 86.8474C74.7547 86.8875 74.5903 86.9551 74.5355 86.9583C74.4875 86.9576 74.3642 86.9168 74.1792 86.8346C73.494 86.5352 73.1035 86.239 73.0418 85.9523C72.9801 85.7063 73.1651 85.354 73.4803 85.0985V85.0985ZM74.0011 88.6976C74.1861 88.7415 74.3916 88.7702 74.604 88.7619C75.0288 88.7472 75.3783 88.6039 75.6386 88.4981C75.947 88.3707 76.2554 88.2363 76.5363 88.0534C77.5572 87.3794 78.0779 86.3001 77.8998 85.2368C77.7216 84.1849 76.9063 83.3534 75.7209 83.012C74.5423 82.6679 73.1993 82.9457 72.2127 83.7294C71.3356 84.4334 70.9245 85.4368 71.1438 86.3472C71.4247 87.5068 72.5416 88.1133 73.3501 88.4676C73.5009 88.5332 73.727 88.6326 74.0011 88.6976Z" fill="#1A365B" fill-opacity="0.75"/>
<path d="M77.9409 78.8439C77.9546 78.152 78.0711 78.0208 78.1122 77.9946C78.1122 77.9934 78.1807 77.9539 78.3931 77.9418C78.5507 77.9335 78.7015 77.9456 78.8317 77.9768C78.9619 78.0068 79.0646 78.0539 79.14 78.1157C79.2976 78.2412 79.3455 78.3667 79.3044 78.5515C79.229 78.9083 78.8385 79.309 78.4548 79.4269C78.2355 79.4964 78.0437 79.46 78.0094 79.4288C77.9615 79.3746 77.9409 79.1784 77.9409 78.8439ZM79.0646 81.142C80.1129 80.819 80.9969 79.8996 81.2093 78.9045C81.3875 78.0832 81.0928 77.2983 80.4076 76.7485C79.8663 76.3121 79.1057 76.0935 78.2766 76.1394C77.7627 76.1681 77.3448 76.2917 76.9954 76.5166C76.0224 77.1486 76.0087 78.3209 76.0018 78.8197C75.995 79.2523 75.9881 79.9754 76.4951 80.5603C76.7692 80.8782 77.1529 81.0955 77.5914 81.2006C78.0505 81.3089 78.5644 81.2949 79.0646 81.142" fill="#1A365B" fill-opacity="0.75"/>
<path d="M90.3634 23.9937C90.3154 23.9402 90.2948 23.7427 90.3017 23.4095C90.3085 22.7163 90.4318 22.5851 90.473 22.559C90.473 22.5577 90.5346 22.5182 90.747 22.5061C90.9115 22.4972 91.0622 22.5099 91.1924 22.5411C91.3157 22.5704 91.4254 22.6176 91.5008 22.6788V22.6794C91.6515 22.8049 91.6995 22.931 91.6652 23.1145C91.5899 23.472 91.1993 23.8727 90.8087 23.9906C90.5826 24.0619 90.3976 24.0173 90.3634 23.9937V23.9937ZM91.4186 25.7057C92.4669 25.3839 93.3508 24.464 93.5701 23.4694C93.7414 22.6482 93.4536 21.8633 92.7684 21.3141C92.2202 20.8745 91.4665 20.6559 90.6374 20.703C90.1167 20.7317 89.6987 20.856 89.3561 21.0809C88.3831 21.7116 88.3695 22.8832 88.3557 23.3834C88.3557 23.816 88.3421 24.5366 88.8491 25.124C89.1232 25.4406 89.5137 25.6592 89.9522 25.7636C90.4045 25.872 90.9184 25.8586 91.4186 25.7057" fill="#1A365B" fill-opacity="0.75"/>
</svg>
